{"glyphs":{"0":{"ha":840,"x_min":56,"x_max":785,"o":"m 418 935 q 606 873 517 935 q 744 686 699 807 q 785 437 785 576 q 684 96 785 222 q 429 -23 589 -23 q 276 11 346 -23 q 159 110 206 45 q 56 463 56 249 q 150 802 56 673 q 279 907 201 871 q 418 935 342 935 m 411 880 q 281 826 331 880 q 216 663 236 779 q 199 461 199 570 q 248 151 199 260 q 330 61 273 96 q 432 33 377 33 q 641 453 641 33 q 599 762 641 665 q 517 854 573 822 q 411 880 471 880 z "},"1":{"ha":444,"x_min":-19,"x_max":416,"o":"m 315 912 l 315 83 l 416 0 l 79 0 l 180 83 l 180 777 q 125 751 159 762 q 61 741 92 741 q 4 759 29 741 q -19 800 -19 774 q -8 826 -19 815 q 17 837 2 837 q 37 828 29 837 q 45 808 45 820 q 44 798 45 803 q 43 794 43 795 q 62 782 43 782 q 181 842 125 782 q 226 912 210 872 l 315 912 z "},"2":{"ha":736,"x_min":28,"x_max":699,"o":"m 699 212 l 699 0 l 28 0 q 90 156 43 75 q 186 277 136 233 q 315 371 231 318 q 448 465 410 431 q 545 684 545 554 q 486 833 545 784 q 352 880 431 880 q 226 836 275 880 q 174 721 174 789 q 221 617 174 654 q 286 595 248 595 q 358 622 328 595 q 375 639 365 628 q 356 583 370 607 q 227 507 313 507 q 96 562 150 507 q 44 688 44 614 q 139 873 44 800 q 348 935 219 935 q 594 848 499 935 q 684 656 684 766 q 551 433 684 530 q 451 370 503 399 l 342 311 q 175 163 248 260 q 146 116 159 143 l 439 116 q 567 119 516 116 q 641 136 614 123 q 686 179 668 150 q 699 212 694 194 z "},"3":{"ha":748,"x_min":23,"x_max":702,"o":"m 182 312 q 172 224 172 268 q 216 86 172 133 q 356 33 265 33 q 500 90 450 33 q 550 243 550 146 q 500 412 550 343 q 422 473 469 454 q 356 488 387 488 q 269 476 326 488 l 296 555 l 303 554 q 349 553 340 553 q 458 587 411 553 q 521 711 521 633 q 454 843 521 795 q 338 880 402 880 q 208 830 258 880 q 176 741 176 798 q 196 680 176 703 q 245 657 216 657 q 286 669 267 657 q 189 605 262 605 q 85 656 124 605 q 57 739 57 695 q 117 859 57 806 q 357 935 204 935 q 576 873 494 935 q 655 720 655 814 q 572 565 655 623 q 454 520 522 530 q 593 460 535 502 q 702 247 702 384 q 598 39 702 111 q 358 -23 509 -23 q 180 10 255 -23 q 68 106 106 43 q 23 233 37 157 q 182 312 117 262 z "},"4":{"ha":725,"x_min":-18,"x_max":725,"o":"m 421 911 q 288 587 406 801 q 71 292 177 392 l 406 292 l 406 608 q 541 720 492 652 l 541 292 l 591 292 q 673 281 648 292 q 710 252 696 272 q 725 209 725 231 q 710 173 725 187 q 675 159 696 159 q 638 174 652 159 q 630 195 630 182 q 640 219 630 207 q 642 224 642 221 q 625 241 642 237 q 591 242 621 241 l 541 242 l 541 83 l 643 0 l 304 0 l 406 83 l 406 242 l -18 242 l -18 267 q 189 649 110 414 q 242 911 244 815 l 421 911 z "},"5":{"ha":755,"x_min":9,"x_max":718,"o":"m 100 912 l 477 912 q 597 921 577 912 q 627 964 627 934 q 621 972 627 972 q 613 966 618 972 q 593 958 605 958 q 569 968 579 958 q 559 991 559 977 q 570 1015 559 1004 q 593 1025 580 1025 q 642 1000 621 1025 q 667 932 667 970 q 623 840 667 878 q 512 800 585 807 q 412 796 484 796 l 164 796 l 164 555 q 379 631 258 631 q 612 550 513 631 q 718 302 718 463 q 612 58 718 150 q 342 -23 520 -23 q 68 84 161 -23 q 9 204 20 138 q 78 239 35 215 q 178 304 144 277 q 170 227 170 265 q 222 81 170 127 q 357 33 279 33 q 517 117 460 33 q 565 317 565 188 q 507 506 565 444 q 355 568 450 568 q 146 445 227 568 l 100 473 l 100 912 z "},"6":{"ha":783,"x_min":56,"x_max":727,"o":"m 574 695 q 566 764 571 742 q 515 855 553 826 q 418 889 471 889 q 288 828 346 889 q 197 421 197 732 q 237 149 197 241 q 318 57 262 91 q 401 33 357 33 q 549 127 494 33 q 597 325 597 208 q 553 501 597 435 q 425 569 507 569 q 298 492 341 569 q 273 416 281 463 q 247 380 268 380 q 225 392 234 380 q 216 421 216 404 q 239 515 216 465 q 309 595 264 566 q 446 633 368 633 q 567 606 510 633 q 663 529 625 578 q 727 315 727 448 q 701 169 727 236 q 629 57 675 101 q 416 -23 545 -23 q 204 52 290 -23 q 90 238 131 115 q 56 455 56 342 q 163 806 56 659 q 283 908 212 872 q 435 945 353 945 q 646 865 562 945 q 712 771 686 829 q 666 749 706 768 q 574 695 593 709 z "},"7":{"ha":713,"x_min":0,"x_max":686,"o":"m 686 912 q 655 782 680 852 q 600 648 630 709 q 518 494 562 575 q 416 56 416 302 q 417 0 416 26 l 224 0 q 256 189 225 75 q 436 520 296 333 q 547 675 528 642 q 603 796 600 764 l 125 796 l 125 771 q 117 680 125 716 q 52 621 102 621 q 11 635 27 621 q 0 658 0 644 q 14 686 0 675 q 33 692 22 692 q 56 682 44 692 q 67 675 62 675 q 85 699 80 675 q 87 771 87 705 l 87 912 l 686 912 z "},"8":{"ha":808,"x_min":37,"x_max":771,"o":"m 275 524 q 195 564 228 545 q 98 722 98 625 q 204 903 98 824 q 317 969 235 926 q 463 1058 417 1021 q 477 1077 477 1069 q 461 1091 477 1082 q 444 1123 444 1102 q 457 1155 444 1142 q 484 1165 468 1165 q 520 1143 505 1165 q 534 1098 534 1122 q 468 1006 534 1055 q 317 911 435 983 q 256 863 286 892 q 214 772 214 823 q 254 687 214 722 q 405 608 302 646 q 456 591 429 598 q 549 633 515 608 q 624 757 624 686 q 583 844 624 810 q 496 875 545 875 q 396 815 422 875 q 376 795 387 795 q 353 827 353 795 q 392 901 353 873 q 491 930 431 930 q 634 876 576 930 q 686 757 686 827 q 591 599 686 665 q 522 555 562 578 l 531 551 q 640 494 620 509 q 736 382 702 447 q 771 251 771 317 q 741 131 771 187 q 654 37 710 74 q 424 -23 568 -23 q 138 62 246 -23 q 37 258 37 141 q 156 462 37 385 q 275 524 203 492 m 326 494 q 241 439 274 465 q 159 262 159 374 q 245 81 159 146 q 452 33 310 33 q 599 77 552 33 q 656 213 656 133 q 471 438 656 355 q 326 494 444 451 z "},"9":{"ha":755,"x_min":28,"x_max":699,"o":"m 532 557 q 554 518 554 557 q 490 374 554 435 q 309 309 420 309 q 98 401 178 309 q 28 600 28 479 q 136 854 28 756 q 347 935 225 935 q 502 894 431 935 q 623 775 574 852 q 699 485 699 657 q 597 113 699 276 q 376 -99 512 -23 q 121 -167 252 -167 q 77 -144 77 -167 q 109 -121 77 -125 q 442 66 317 -97 q 536 283 499 140 q 562 506 562 385 q 532 737 562 653 q 452 842 509 800 q 339 880 402 880 q 191 782 239 880 q 161 630 161 720 q 210 454 161 517 q 348 387 263 387 q 494 473 456 387 q 513 540 503 491 q 532 557 517 557 z "}," ":{"ha":347,"x_min":0,"x_max":0,"o":""},"!":{"ha":399,"x_min":46,"x_max":353,"o":"m 212 245 l 188 245 q 178 372 188 300 q 155 494 169 444 q 83 660 129 585 q 46 718 67 686 q 144 786 107 744 q 199 907 177 825 q 256 786 222 825 q 353 718 292 744 q 281 593 303 642 q 212 245 216 455 m 201 178 q 266 151 239 178 q 293 84 293 123 q 267 18 293 46 q 199 -9 239 -9 q 133 18 160 -9 q 106 84 106 45 q 134 151 106 124 q 201 178 161 178 z "},"\"":{"ha":405,"x_min":46,"x_max":358,"o":"m 46 926 l 173 926 l 142 635 l 77 635 l 46 926 m 231 926 l 358 926 l 328 635 l 262 635 l 231 926 z "},"#":{"ha":833,"x_min":55,"x_max":778,"o":"m 326 340 l 278 0 l 184 0 l 232 340 l 55 340 l 55 401 l 240 401 l 261 553 l 90 553 l 90 614 l 270 614 l 313 926 l 408 926 l 365 614 l 524 614 l 567 926 l 659 926 l 616 614 l 778 614 l 778 553 l 607 553 l 586 401 l 745 401 l 745 340 l 577 340 l 530 0 l 437 0 l 486 340 l 326 340 m 515 553 l 355 553 l 334 401 l 494 401 l 515 553 z "},"$":{"ha":824,"x_min":28,"x_max":796,"o":"m 765 921 q 688 783 723 854 q 637 659 654 712 q 465 867 608 831 l 465 550 q 538 530 528 533 q 691 467 644 500 q 768 377 741 433 q 796 257 796 321 q 718 66 796 146 q 572 -13 663 11 q 492 -24 525 -24 q 465 -23 483 -24 l 465 -157 l 407 -157 l 407 -17 q 231 21 355 -10 q 140 35 176 35 q 28 0 101 35 q 115 154 86 98 q 170 292 147 220 q 197 192 189 213 q 407 39 248 61 l 407 409 q 244 453 287 435 q 151 526 184 479 q 106 676 106 591 q 208 880 106 810 q 407 935 286 933 l 407 1032 l 465 1032 l 465 931 q 618 896 482 928 q 669 889 648 889 q 765 921 713 889 m 464 32 q 587 55 542 32 q 677 193 677 100 q 612 330 677 272 q 526 377 577 361 q 464 394 505 383 l 464 32 m 407 564 l 407 877 q 331 861 370 877 q 231 728 231 820 q 288 615 231 659 q 407 564 324 586 z "},"%":{"ha":1083,"x_min":31,"x_max":1052,"o":"m 258 931 q 420 865 355 931 q 487 681 487 798 q 425 510 487 572 q 264 450 364 450 q 95 517 158 450 q 31 693 31 584 q 90 863 31 801 q 258 931 154 931 m 253 880 q 163 836 188 880 q 136 692 136 785 q 164 551 136 598 q 206 514 178 528 q 266 500 234 500 q 382 690 382 500 q 358 829 382 787 q 253 880 330 880 m 857 918 l 295 0 l 226 0 l 788 918 l 857 918 m 823 469 q 985 403 920 469 q 1052 218 1052 335 q 989 47 1052 109 q 829 -14 929 -14 q 660 54 723 -14 q 596 231 596 121 q 654 400 596 338 q 823 469 719 469 m 818 418 q 728 373 753 418 q 701 229 701 323 q 729 88 701 135 q 771 52 743 66 q 831 37 799 37 q 947 227 947 37 q 923 367 947 324 q 818 418 895 418 z "},"&":{"ha":984,"x_min":56,"x_max":985,"o":"m 359 588 q 341 716 341 656 q 397 882 341 825 q 521 935 448 935 q 644 886 591 935 q 695 769 695 840 q 497 569 695 629 q 566 418 532 494 q 659 252 615 314 q 684 404 684 300 q 677 487 684 451 q 867 377 783 406 q 712 169 797 309 q 878 59 795 59 q 942 81 907 59 q 961 87 952 87 q 985 67 985 87 q 951 22 985 45 q 840 -14 897 -14 q 701 22 771 -14 q 641 64 669 39 q 579 20 608 37 q 404 -23 505 -23 q 165 52 264 -23 q 85 151 114 91 q 56 280 56 212 q 119 456 56 381 q 359 588 184 534 m 379 525 q 298 475 332 506 q 204 262 204 393 q 264 104 204 165 q 415 37 328 37 q 587 126 510 37 q 438 389 526 208 q 379 525 410 448 m 477 624 q 568 671 542 648 q 612 768 612 712 q 579 851 612 821 q 518 875 554 875 q 454 844 475 875 q 437 785 437 821 q 477 624 437 718 z "},"'":{"ha":220,"x_min":46,"x_max":173,"o":"m 46 926 l 173 926 l 142 635 l 77 635 l 46 926 z "},"(":{"ha":484,"x_min":56,"x_max":456,"o":"m 456 1019 l 456 954 q 275 865 336 942 q 218 692 231 809 q 208 463 208 609 q 230 162 208 260 q 352 1 254 50 q 456 -28 397 -22 l 456 -93 q 309 -62 367 -83 q 200 6 252 -41 q 119 113 149 53 q 56 463 56 237 q 119 814 56 689 q 200 920 149 873 q 309 988 252 967 q 456 1019 367 1009 z "},")":{"ha":484,"x_min":28,"x_max":428,"o":"m 28 -93 l 28 -28 q 208 61 147 -16 q 267 235 252 117 q 276 463 276 317 q 254 764 276 665 q 132 925 229 876 q 28 954 86 948 l 28 1019 q 174 988 117 1009 q 283 920 232 967 q 365 814 334 873 q 428 463 428 689 q 365 113 428 237 q 283 6 334 53 q 174 -62 232 -41 q 28 -93 117 -83 z "},"*":{"ha":513,"x_min":28,"x_max":485,"o":"m 258 696 q 207 605 225 652 q 187 514 189 558 l 71 599 q 222 720 147 616 q 100 740 156 740 q 28 730 64 740 l 73 867 q 234 760 112 801 q 184 949 237 874 l 328 949 q 276 762 275 888 q 441 867 387 795 l 485 730 q 415 744 450 744 q 291 722 358 744 q 442 599 359 628 l 326 514 q 326 528 326 523 q 258 696 326 602 z "},"+":{"ha":648,"x_min":31,"x_max":618,"o":"m 279 757 l 369 757 l 369 500 l 618 500 l 618 410 l 369 410 l 369 169 l 279 169 l 279 410 l 31 410 l 31 500 l 279 500 l 279 757 z "},",":{"ha":317,"x_min":24,"x_max":243,"o":"m 222 160 q 243 61 243 110 q 158 -121 243 -51 q 30 -187 105 -163 l 24 -177 q 69 -134 58 -149 q 105 -22 105 -88 q 67 85 105 39 l 81 90 q 222 160 151 115 z "},"-":{"ha":448,"x_min":28,"x_max":420,"o":"m 388 506 l 420 420 l 60 420 l 28 506 l 388 506 z "},".":{"ha":317,"x_min":65,"x_max":252,"o":"m 160 178 q 225 151 198 178 q 252 84 252 123 q 225 18 252 46 q 159 -9 198 -9 q 92 18 119 -9 q 65 84 65 45 q 93 151 65 124 q 160 178 121 178 z "},"/":{"ha":787,"x_min":0,"x_max":787,"o":"m 787 1019 l 115 -93 l 0 -93 l 672 1019 l 787 1019 z "},":":{"ha":317,"x_min":65,"x_max":252,"o":"m 160 178 q 225 151 198 178 q 252 84 252 123 q 225 18 252 46 q 159 -9 198 -9 q 92 18 119 -9 q 65 84 65 45 q 93 151 65 124 q 160 178 121 178 m 160 709 q 225 682 198 709 q 252 615 252 654 q 225 549 252 576 q 159 522 198 522 q 92 549 119 522 q 65 615 65 576 q 93 682 65 655 q 160 709 121 709 z "},";":{"ha":317,"x_min":24,"x_max":249,"o":"m 222 160 q 243 61 243 110 q 158 -121 243 -51 q 30 -187 105 -163 l 24 -177 q 69 -134 58 -149 q 105 -22 105 -88 q 67 85 105 39 l 81 90 q 222 160 151 115 m 157 709 q 222 682 194 709 q 249 615 249 654 q 222 549 249 576 q 155 522 195 522 q 89 549 116 522 q 62 615 62 576 q 90 682 62 655 q 157 709 117 709 z "},"<":{"ha":694,"x_min":58,"x_max":637,"o":"m 637 865 l 637 796 l 243 542 l 637 277 l 637 95 l 58 486 l 58 496 l 637 865 z "},"=":{"ha":648,"x_min":31,"x_max":618,"o":"m 618 608 l 618 518 l 31 518 l 31 608 l 618 608 m 618 408 l 618 318 l 31 318 l 31 408 l 618 408 z "},">":{"ha":694,"x_min":58,"x_max":637,"o":"m 58 95 l 58 163 l 452 417 l 58 683 l 58 865 l 637 473 l 637 463 l 58 95 z "},"?":{"ha":582,"x_min":23,"x_max":559,"o":"m 76 566 q 23 702 23 629 q 95 850 23 792 q 281 907 166 907 q 407 885 348 907 q 504 821 466 862 q 559 680 559 763 q 490 524 559 588 q 336 410 456 491 q 263 334 290 379 q 241 292 241 298 l 244 231 q 236 221 244 227 q 221 216 228 216 q 190 241 203 216 q 177 293 177 264 q 287 503 177 391 q 378 609 356 574 q 409 715 409 661 q 373 811 409 773 q 279 849 337 849 q 185 811 222 849 q 156 743 156 781 q 215 661 156 695 q 168 633 208 656 q 76 566 125 609 m 264 178 q 330 151 302 178 q 357 84 357 123 q 330 18 357 46 q 263 -9 302 -9 q 197 18 224 -9 q 170 84 170 45 q 197 151 170 124 q 264 178 225 178 z "},"@":{"ha":1031,"x_min":56,"x_max":985,"o":"m 753 743 l 714 436 q 705 337 705 350 q 726 287 705 304 q 753 277 739 277 q 844 338 800 277 q 887 435 871 375 q 903 558 903 495 q 813 782 903 688 q 557 893 708 893 q 296 781 408 893 q 159 442 159 645 q 267 153 159 267 q 538 35 376 35 q 703 66 616 35 q 809 125 734 77 q 845 141 833 141 q 860 126 860 141 q 819 78 860 106 q 684 13 762 37 q 530 -12 606 -12 q 345 24 434 -12 q 191 124 256 60 q 84 292 119 195 q 56 454 56 370 q 222 817 56 671 q 559 941 365 941 q 869 821 745 941 q 985 557 985 710 q 926 347 985 441 q 815 241 883 276 q 729 219 772 219 q 626 318 633 219 q 556 238 592 262 q 469 214 519 214 q 391 233 429 214 q 331 283 353 252 q 289 438 289 342 q 372 667 289 572 q 559 758 448 758 q 656 736 602 758 q 705 724 684 724 q 753 743 726 724 m 612 454 l 625 562 q 626 578 626 570 q 612 660 626 621 q 577 701 602 686 q 544 711 562 711 q 482 685 511 711 q 435 611 454 659 q 406 420 406 533 q 429 300 406 339 q 486 261 452 261 q 544 285 516 261 q 589 351 572 309 q 612 454 604 385 z "},"A":{"ha":958,"x_min":-37,"x_max":977,"o":"m 661 926 l 584 842 l 705 517 q 810 606 771 558 q 833 537 817 579 q 868 468 852 492 q 826 469 844 469 q 734 447 775 469 l 868 83 l 977 0 l 612 0 l 711 83 l 612 346 q 562 296 587 320 q 470 178 497 228 q 306 396 378 326 l 301 382 q 258 252 271 291 q 239 153 239 190 q 274 54 239 95 q 323 0 281 46 l -37 0 q 82 87 37 37 q 248 432 182 204 q 199 459 221 451 q 138 472 177 468 q 175 534 153 494 q 199 586 194 570 q 243 538 216 562 q 279 507 271 515 l 405 842 l 328 926 l 661 926 m 450 778 l 330 465 q 470 289 393 397 q 522 352 477 297 q 585 419 546 382 l 450 778 z "},"B":{"ha":888,"x_min":19,"x_max":842,"o":"m 58 833 q 439 949 229 949 q 595 926 522 949 q 715 862 668 903 q 794 697 794 792 q 677 519 794 579 q 587 491 642 501 q 665 469 621 486 q 779 395 735 443 q 842 233 842 325 q 762 62 842 129 q 560 2 699 10 q 463 0 529 0 l 37 0 l 139 83 l 139 455 q 19 449 67 453 l 51 518 q 105 515 84 515 q 139 513 130 515 l 139 778 l 58 833 m 283 839 l 283 513 q 357 513 329 513 q 553 546 492 513 q 618 617 595 568 q 637 699 637 655 q 571 846 637 789 q 441 888 523 888 q 283 839 358 888 m 283 454 l 283 65 q 387 60 352 60 q 590 94 514 60 q 684 257 684 136 q 632 400 684 350 q 473 452 588 442 q 351 456 425 456 q 283 454 322 456 z "},"C":{"ha":827,"x_min":46,"x_max":812,"o":"m 812 926 q 666 631 722 769 q 614 791 652 729 q 521 869 582 842 q 440 888 481 888 q 315 841 373 888 q 203 481 203 751 q 264 170 203 288 q 349 76 296 112 q 479 37 407 37 q 642 107 580 37 q 711 296 699 172 q 735 326 713 326 q 763 280 763 326 q 739 153 763 222 q 635 21 708 66 q 455 -24 561 -24 q 291 7 367 -24 q 165 96 216 39 q 73 268 103 167 q 46 454 46 358 q 86 677 46 574 q 201 852 126 781 q 451 949 301 949 q 565 933 511 949 q 630 909 581 928 q 720 889 684 889 q 783 907 753 889 q 812 926 793 912 z "},"D":{"ha":852,"x_min":37,"x_max":807,"o":"m 37 926 l 349 926 q 658 846 557 926 q 807 472 807 727 q 648 73 807 187 q 468 5 572 19 q 349 0 427 0 l 37 0 l 139 83 l 139 842 l 37 926 m 283 861 l 283 65 q 370 60 343 60 q 576 163 508 60 q 650 475 650 275 q 592 744 650 641 q 503 834 559 802 q 374 865 446 865 q 283 861 349 865 z "},"E":{"ha":838,"x_min":-12,"x_max":838,"o":"m 799 926 q 728 831 748 865 q 671 705 699 783 q 660 729 666 715 q 606 817 630 793 q 505 861 570 852 q 422 865 476 865 q 283 861 354 865 l 283 528 l 479 528 l 572 639 l 572 356 l 479 467 l 283 467 l 283 64 q 378 60 349 60 q 597 104 530 60 q 700 237 645 136 q 747 111 716 163 q 838 0 776 59 l 37 0 l 139 83 l 139 467 q -12 416 51 470 q 139 528 17 527 l 139 842 l 37 926 l 799 926 z "},"F":{"ha":781,"x_min":-12,"x_max":799,"o":"m 799 926 q 728 831 748 865 q 671 705 699 783 q 660 729 666 715 q 606 817 630 793 q 505 861 570 852 q 422 865 476 865 q 283 861 354 865 l 283 528 l 479 528 l 572 639 l 572 356 l 479 467 l 283 467 l 283 83 l 385 0 l 37 0 l 139 83 l 139 467 q -12 416 51 470 q 139 528 17 527 l 139 842 l 37 926 l 799 926 z "},"G":{"ha":943,"x_min":46,"x_max":915,"o":"m 857 916 l 722 650 q 677 794 712 739 q 600 864 648 840 q 492 889 551 889 q 300 805 377 889 q 227 671 251 751 q 203 478 203 591 q 548 60 203 60 q 669 65 582 60 l 669 421 l 469 421 q 319 519 319 421 q 342 575 319 553 q 388 595 362 595 q 423 581 409 595 q 437 548 437 568 q 422 517 437 530 q 397 509 419 513 q 387 498 387 507 q 436 481 387 481 l 915 481 l 813 398 l 813 83 l 915 0 l 574 0 q 363 12 418 0 q 226 77 290 28 q 119 194 161 125 q 46 471 46 313 q 75 657 46 569 q 157 808 104 746 q 311 917 218 878 q 463 949 389 949 q 637 921 541 949 q 725 896 707 900 q 765 892 742 892 q 857 916 812 892 z "},"H":{"ha":884,"x_min":5,"x_max":846,"o":"m 37 926 l 384 926 l 282 842 l 282 514 q 479 491 363 491 q 601 500 546 491 l 601 842 l 499 926 l 846 926 l 745 842 l 745 83 l 846 0 l 499 0 l 601 83 l 601 435 q 463 426 534 426 q 282 444 353 426 l 282 83 l 384 0 l 37 0 l 138 83 l 138 445 q 60 427 102 446 q 5 383 27 414 q 138 513 41 492 l 138 842 l 37 926 z "},"I":{"ha":421,"x_min":37,"x_max":385,"o":"m 37 926 l 385 926 l 283 842 l 283 83 l 385 0 l 37 0 l 139 83 l 139 842 l 37 926 z "},"J":{"ha":720,"x_min":-38,"x_max":686,"o":"m 686 926 l 585 842 l 585 287 q 590 224 585 245 q 621 191 597 203 q 560 64 614 117 q 317 -23 472 -23 q 77 74 160 -23 q 20 182 47 111 q -14 218 9 211 q -38 224 -22 221 l 178 385 q 166 241 166 311 q 208 88 166 142 q 309 37 248 37 q 441 235 441 37 l 441 842 l 339 926 l 686 926 z "},"K":{"ha":893,"x_min":37,"x_max":912,"o":"m 37 926 l 385 926 l 283 842 l 283 395 l 562 729 q 612 832 612 788 q 571 901 612 871 q 517 926 547 920 l 898 926 q 628 715 764 890 l 528 595 l 792 83 l 912 0 l 534 0 l 635 83 l 431 481 l 283 303 l 283 83 l 385 0 l 37 0 l 139 83 l 139 842 l 37 926 z "},"L":{"ha":774,"x_min":37,"x_max":793,"o":"m 37 926 l 385 926 l 283 842 l 283 64 q 403 60 355 60 q 549 90 498 60 q 654 269 630 138 q 714 125 677 201 q 793 0 761 31 l 37 0 l 139 83 l 139 842 l 37 926 z "},"M":{"ha":1053,"x_min":18,"x_max":1016,"o":"m 197 751 l 197 268 q 205 139 197 179 q 317 0 224 27 l 18 0 q 108 73 77 18 q 138 268 139 132 l 138 842 l 37 926 l 418 926 l 316 842 l 525 227 l 748 842 l 646 926 l 1016 926 l 914 842 l 914 83 l 1016 0 l 669 0 l 770 83 l 770 742 l 503 0 l 452 0 l 197 751 z "},"N":{"ha":847,"x_min":18,"x_max":833,"o":"m 654 176 l 654 686 q 646 801 654 765 q 534 926 625 897 l 833 926 q 743 860 772 906 q 712 686 712 807 l 712 0 l 595 0 l 197 772 l 197 240 q 205 125 197 161 q 317 0 225 29 l 18 0 q 108 66 80 21 q 138 240 138 119 l 138 842 l 37 926 l 411 926 l 309 842 l 654 176 z "},"O":{"ha":878,"x_min":46,"x_max":831,"o":"m 444 949 q 601 918 529 949 q 722 829 673 886 q 831 463 831 701 q 722 97 831 226 q 439 -23 621 -23 q 155 97 257 -23 q 46 460 46 226 q 155 829 46 700 q 444 949 257 949 m 429 888 q 298 834 357 888 q 216 652 237 777 q 203 464 203 577 q 256 155 203 257 q 351 60 287 94 q 445 37 396 37 q 579 92 521 37 q 674 458 674 180 q 621 771 674 671 q 526 865 590 831 q 429 888 481 888 z "},"P":{"ha":794,"x_min":-14,"x_max":776,"o":"m 37 926 l 372 926 q 665 869 578 926 q 776 670 776 797 q 727 528 776 590 q 393 421 644 421 q 283 426 357 421 l 283 83 l 385 0 l 37 0 l 139 83 l 139 435 q 117 437 127 437 q -14 410 56 437 q 139 500 31 503 l 139 842 l 37 926 m 283 861 l 283 490 q 361 486 324 486 q 618 663 618 486 q 386 865 618 865 q 283 861 345 865 z "},"Q":{"ha":878,"x_min":46,"x_max":938,"o":"m 585 2 q 438 -23 515 -23 q 155 97 257 -23 q 46 463 46 226 q 155 829 46 700 q 439 949 257 949 q 722 829 621 949 q 831 462 831 700 q 675 52 831 179 q 829 -7 740 -7 q 938 17 875 -7 q 880 -73 913 -18 q 827 -170 848 -127 q 585 2 690 -147 m 538 62 q 493 113 521 93 q 426 138 458 138 q 408 137 420 138 l 458 199 q 530 168 492 191 q 595 117 568 145 l 599 115 q 674 459 674 212 q 662 643 674 570 q 621 771 649 717 q 526 865 591 831 q 432 888 481 888 q 298 834 356 888 q 216 652 237 777 q 203 465 203 578 q 256 155 203 257 q 351 60 286 94 q 446 37 396 37 q 538 62 493 37 z "},"R":{"ha":829,"x_min":20,"x_max":847,"o":"m 37 833 q 226 918 119 888 q 439 949 332 949 q 582 927 512 949 q 699 869 652 906 q 783 705 783 802 q 662 511 783 584 q 541 461 608 477 q 669 208 585 338 q 847 0 762 66 q 615 -120 715 -42 q 550 181 589 46 q 458 437 522 279 q 376 419 433 430 q 283 405 311 407 l 283 83 l 385 0 l 37 0 l 139 83 l 139 385 q 20 363 63 378 q 52 448 43 404 q 87 446 74 446 q 139 450 107 446 l 139 778 l 37 833 m 283 839 l 283 460 q 505 520 416 474 q 602 610 572 555 q 626 703 626 654 q 556 845 626 791 q 420 888 498 888 q 283 839 342 888 z "},"S":{"ha":777,"x_min":-14,"x_max":754,"o":"m 717 918 q 657 814 694 888 q 595 675 618 733 q 562 774 581 737 q 483 856 536 824 q 366 888 429 888 q 235 841 287 888 q 189 733 189 799 q 279 600 189 642 q 372 568 323 580 l 494 538 q 686 441 627 506 q 754 265 754 366 q 672 71 754 152 q 427 -23 577 -23 q 262 3 359 -23 q 172 29 235 10 q 95 43 125 43 q -14 0 56 43 q 66 144 23 55 q 121 281 109 236 q 161 163 141 199 q 259 75 195 107 q 425 37 332 37 q 574 80 521 37 q 634 205 634 129 q 585 323 634 271 q 471 390 543 366 q 321 425 430 403 q 128 508 183 451 q 62 682 62 576 q 155 885 62 810 q 353 949 234 949 q 554 913 441 949 q 630 897 607 897 q 717 918 661 897 z "},"T":{"ha":840,"x_min":-18,"x_max":859,"o":"m 859 926 q 753 703 785 805 q 715 794 732 766 q 658 846 696 827 q 574 865 621 865 q 492 861 548 865 l 492 83 l 594 0 l 247 0 l 349 83 l 349 861 q 267 865 293 865 q 183 846 220 865 q 125 794 145 827 q 88 703 109 766 q -18 926 55 806 l 859 926 z "},"U":{"ha":874,"x_min":33,"x_max":888,"o":"m 534 926 l 888 926 q 778 853 814 904 q 745 751 753 817 q 741 658 741 720 l 741 357 q 735 188 741 241 q 713 97 729 135 q 610 2 685 30 q 460 -23 543 -23 q 175 100 241 -23 q 134 359 134 176 l 134 842 l 33 926 l 380 926 l 278 842 l 278 265 q 294 129 278 176 q 366 56 312 79 q 471 37 413 37 q 653 127 612 37 q 682 356 682 191 l 682 658 q 672 787 682 746 q 534 926 648 893 z "},"V":{"ha":861,"x_min":-18,"x_max":1006,"o":"m 1006 1153 q 849 945 912 1063 q 766 762 807 867 q 715 627 741 694 l 508 83 l 610 0 l 252 0 l 353 83 l 83 842 l -18 926 l 330 926 l 227 842 l 473 146 l 663 647 q 732 902 732 828 q 677 1027 732 975 q 1006 1153 888 1065 z "},"W":{"ha":1176,"x_min":-18,"x_max":1271,"o":"m 1271 1153 q 1145 989 1194 1072 q 1071 827 1101 912 q 999 590 1037 729 l 874 136 l 889 83 l 991 0 l 640 0 l 742 83 l 580 665 l 427 125 l 441 83 l 543 0 l 195 0 l 296 83 l 83 842 l -18 926 l 331 926 l 229 842 l 397 241 l 587 926 l 654 926 l 842 246 l 942 607 q 1006 905 1006 838 q 989 975 1006 946 q 933 1027 973 1004 q 1113 1083 1011 1046 q 1271 1153 1220 1122 z "},"X":{"ha":836,"x_min":-18,"x_max":854,"o":"m 387 387 l 167 83 l 269 0 l -18 0 q 52 54 21 28 q 168 188 101 96 l 352 442 l 102 842 l 0 926 l 359 926 l 258 842 l 453 531 l 678 842 l 576 926 l 854 926 q 674 734 760 852 l 488 476 l 734 83 l 836 0 l 474 0 l 576 83 l 387 387 z "},"Y":{"ha":906,"x_min":-18,"x_max":1059,"o":"m 1059 1148 q 934 1019 983 1075 q 793 819 896 977 l 526 389 l 526 83 l 627 0 l 280 0 l 382 83 l 382 389 l 209 655 q 83 836 124 789 q -18 926 52 871 l 354 926 l 252 839 l 502 461 l 697 779 q 763 941 763 887 q 702 1027 763 981 q 891 1078 760 1036 q 1059 1148 983 1107 z "},"Z":{"ha":821,"x_min":0,"x_max":821,"o":"m 792 926 l 214 65 q 343 60 275 60 q 574 92 512 60 q 692 242 642 127 q 821 0 755 79 l 0 0 l 574 861 q 453 865 517 865 q 256 849 313 865 q 121 704 161 821 q 8 926 77 804 l 792 926 z "},"[":{"ha":461,"x_min":111,"x_max":434,"o":"m 111 1000 l 434 1000 l 434 935 l 259 935 l 259 -9 l 434 -9 l 434 -74 l 111 -74 l 111 1000 z "},"\\":{"ha":787,"x_min":0,"x_max":787,"o":"m 115 1019 l 787 -93 l 672 -93 l 0 1019 l 115 1019 z "},"]":{"ha":461,"x_min":28,"x_max":351,"o":"m 351 -74 l 28 -74 l 28 -9 l 203 -9 l 203 935 l 28 935 l 28 1000 l 351 1000 l 351 -74 z "},"^":{"ha":863,"x_min":46,"x_max":816,"o":"m 46 392 l 414 972 l 425 972 l 816 392 l 634 392 l 369 787 l 115 392 l 46 392 z "},"_":{"ha":694,"x_min":0,"x_max":694,"o":"m 0 -125 l 694 -125 l 694 -215 l 0 -215 l 0 -125 z "},"`":{"ha":694,"x_min":133,"x_max":385,"o":"m 133 1127 l 279 1127 l 385 984 l 309 984 l 133 1127 z "},"a":{"ha":958,"x_min":-37,"x_max":977,"o":"m 661 926 l 584 842 l 705 517 q 810 606 771 558 q 833 537 817 579 q 868 468 852 492 q 826 469 844 469 q 734 447 775 469 l 868 83 l 977 0 l 612 0 l 711 83 l 612 346 q 562 296 587 320 q 470 178 497 228 q 306 396 378 326 l 301 382 q 258 252 271 291 q 239 153 239 190 q 274 54 239 95 q 323 0 281 46 l -37 0 q 82 87 37 37 q 248 432 182 204 q 199 459 221 451 q 138 472 177 468 q 175 534 153 494 q 199 586 194 570 q 243 538 216 562 q 279 507 271 515 l 405 842 l 328 926 l 661 926 m 450 778 l 330 465 q 470 289 393 397 q 522 352 477 297 q 585 419 546 382 l 450 778 z "},"b":{"ha":888,"x_min":19,"x_max":842,"o":"m 58 833 q 439 949 229 949 q 595 926 522 949 q 715 862 668 903 q 794 697 794 792 q 677 519 794 579 q 587 491 642 501 q 665 469 621 486 q 779 395 735 443 q 842 233 842 325 q 762 62 842 129 q 560 2 699 10 q 463 0 529 0 l 37 0 l 139 83 l 139 455 q 19 449 67 453 l 51 518 q 105 515 84 515 q 139 513 130 515 l 139 778 l 58 833 m 283 839 l 283 513 q 357 513 329 513 q 553 546 492 513 q 618 617 595 568 q 637 699 637 655 q 571 846 637 789 q 441 888 523 888 q 283 839 358 888 m 283 454 l 283 65 q 387 60 352 60 q 590 94 514 60 q 684 257 684 136 q 632 400 684 350 q 473 452 588 442 q 351 456 425 456 q 283 454 322 456 z "},"c":{"ha":827,"x_min":46,"x_max":812,"o":"m 812 926 q 666 631 722 769 q 614 791 652 729 q 521 869 582 842 q 440 888 481 888 q 315 841 373 888 q 203 481 203 751 q 264 170 203 288 q 349 76 296 112 q 479 37 407 37 q 642 107 580 37 q 711 296 699 172 q 735 326 713 326 q 763 280 763 326 q 739 153 763 222 q 635 21 708 66 q 455 -24 561 -24 q 291 7 367 -24 q 165 96 216 39 q 73 268 103 167 q 46 454 46 358 q 86 677 46 574 q 201 852 126 781 q 451 949 301 949 q 565 933 511 949 q 630 909 581 928 q 720 889 684 889 q 783 907 753 889 q 812 926 793 912 z "},"d":{"ha":852,"x_min":37,"x_max":807,"o":"m 37 926 l 349 926 q 658 846 557 926 q 807 472 807 727 q 648 73 807 187 q 468 5 572 19 q 349 0 427 0 l 37 0 l 139 83 l 139 842 l 37 926 m 283 861 l 283 65 q 370 60 343 60 q 576 163 508 60 q 650 475 650 275 q 592 744 650 641 q 503 834 559 802 q 374 865 446 865 q 283 861 349 865 z "},"e":{"ha":838,"x_min":-12,"x_max":838,"o":"m 799 926 q 728 831 748 865 q 671 705 699 783 q 660 729 666 715 q 606 817 630 793 q 505 861 570 852 q 422 865 476 865 q 283 861 354 865 l 283 528 l 479 528 l 572 639 l 572 356 l 479 467 l 283 467 l 283 64 q 378 60 349 60 q 597 104 530 60 q 700 237 645 136 q 747 111 716 163 q 838 0 776 59 l 37 0 l 139 83 l 139 467 q -12 416 51 470 q 139 528 17 527 l 139 842 l 37 926 l 799 926 z "},"f":{"ha":781,"x_min":-12,"x_max":799,"o":"m 799 926 q 728 831 748 865 q 671 705 699 783 q 660 729 666 715 q 606 817 630 793 q 505 861 570 852 q 422 865 476 865 q 283 861 354 865 l 283 528 l 479 528 l 572 639 l 572 356 l 479 467 l 283 467 l 283 83 l 385 0 l 37 0 l 139 83 l 139 467 q -12 416 51 470 q 139 528 17 527 l 139 842 l 37 926 l 799 926 z "},"g":{"ha":943,"x_min":46,"x_max":915,"o":"m 857 916 l 722 650 q 677 794 712 739 q 600 864 648 840 q 492 889 551 889 q 300 805 377 889 q 227 671 251 751 q 203 478 203 591 q 548 60 203 60 q 669 65 582 60 l 669 421 l 469 421 q 319 519 319 421 q 342 575 319 553 q 388 595 362 595 q 423 581 409 595 q 437 548 437 568 q 422 517 437 530 q 397 509 419 513 q 387 498 387 507 q 436 481 387 481 l 915 481 l 813 398 l 813 83 l 915 0 l 574 0 q 363 12 418 0 q 226 77 290 28 q 119 194 161 125 q 46 471 46 313 q 75 657 46 569 q 157 808 104 746 q 311 917 218 878 q 463 949 389 949 q 637 921 541 949 q 725 896 707 900 q 765 892 742 892 q 857 916 812 892 z "},"h":{"ha":884,"x_min":5,"x_max":846,"o":"m 37 926 l 384 926 l 282 842 l 282 514 q 479 491 363 491 q 601 500 546 491 l 601 842 l 499 926 l 846 926 l 745 842 l 745 83 l 846 0 l 499 0 l 601 83 l 601 435 q 463 426 534 426 q 282 444 353 426 l 282 83 l 384 0 l 37 0 l 138 83 l 138 445 q 60 427 102 446 q 5 383 27 414 q 138 513 41 492 l 138 842 l 37 926 z "},"i":{"ha":421,"x_min":37,"x_max":385,"o":"m 37 926 l 385 926 l 283 842 l 283 83 l 385 0 l 37 0 l 139 83 l 139 842 l 37 926 z "},"j":{"ha":720,"x_min":-38,"x_max":686,"o":"m 686 926 l 585 842 l 585 287 q 590 224 585 245 q 621 191 597 203 q 560 64 614 117 q 317 -23 472 -23 q 77 74 160 -23 q 20 182 47 111 q -14 218 9 211 q -38 224 -22 221 l 178 385 q 166 241 166 311 q 208 88 166 142 q 309 37 248 37 q 441 235 441 37 l 441 842 l 339 926 l 686 926 z "},"k":{"ha":893,"x_min":37,"x_max":912,"o":"m 37 926 l 385 926 l 283 842 l 283 395 l 562 729 q 612 832 612 788 q 571 901 612 871 q 517 926 547 920 l 898 926 q 628 715 764 890 l 528 595 l 792 83 l 912 0 l 534 0 l 635 83 l 431 481 l 283 303 l 283 83 l 385 0 l 37 0 l 139 83 l 139 842 l 37 926 z "},"l":{"ha":774,"x_min":37,"x_max":793,"o":"m 37 926 l 385 926 l 283 842 l 283 64 q 403 60 355 60 q 549 90 498 60 q 654 269 630 138 q 714 125 677 201 q 793 0 761 31 l 37 0 l 139 83 l 139 842 l 37 926 z "},"m":{"ha":1053,"x_min":18,"x_max":1016,"o":"m 197 751 l 197 268 q 205 139 197 179 q 317 0 224 27 l 18 0 q 108 73 77 18 q 138 268 139 132 l 138 842 l 37 926 l 418 926 l 316 842 l 525 227 l 748 842 l 646 926 l 1016 926 l 914 842 l 914 83 l 1016 0 l 669 0 l 770 83 l 770 742 l 503 0 l 452 0 l 197 751 z "},"n":{"ha":847,"x_min":18,"x_max":833,"o":"m 654 176 l 654 686 q 646 801 654 765 q 534 926 625 897 l 833 926 q 743 860 772 906 q 712 686 712 807 l 712 0 l 595 0 l 197 772 l 197 240 q 205 125 197 161 q 317 0 225 29 l 18 0 q 108 66 80 21 q 138 240 138 119 l 138 842 l 37 926 l 411 926 l 309 842 l 654 176 z "},"o":{"ha":878,"x_min":46,"x_max":831,"o":"m 444 949 q 601 918 529 949 q 722 829 673 886 q 831 463 831 701 q 722 97 831 226 q 439 -23 621 -23 q 155 97 257 -23 q 46 460 46 226 q 155 829 46 700 q 444 949 257 949 m 429 888 q 298 834 357 888 q 216 652 237 777 q 203 464 203 577 q 256 155 203 257 q 351 60 287 94 q 445 37 396 37 q 579 92 521 37 q 674 458 674 180 q 621 771 674 671 q 526 865 590 831 q 429 888 481 888 z "},"p":{"ha":794,"x_min":-14,"x_max":776,"o":"m 37 926 l 372 926 q 665 869 578 926 q 776 670 776 797 q 727 528 776 590 q 393 421 644 421 q 283 426 357 421 l 283 83 l 385 0 l 37 0 l 139 83 l 139 435 q 117 437 127 437 q -14 410 56 437 q 139 500 31 503 l 139 842 l 37 926 m 283 861 l 283 490 q 361 486 324 486 q 618 663 618 486 q 386 865 618 865 q 283 861 345 865 z "},"q":{"ha":878,"x_min":46,"x_max":938,"o":"m 585 2 q 438 -23 515 -23 q 155 97 257 -23 q 46 463 46 226 q 155 829 46 700 q 439 949 257 949 q 722 829 621 949 q 831 462 831 700 q 675 52 831 179 q 829 -7 740 -7 q 938 17 875 -7 q 880 -73 913 -18 q 827 -170 848 -127 q 585 2 690 -147 m 538 62 q 493 113 521 93 q 426 138 458 138 q 408 137 420 138 l 458 199 q 530 168 492 191 q 595 117 568 145 l 599 115 q 674 459 674 212 q 662 643 674 570 q 621 771 649 717 q 526 865 591 831 q 432 888 481 888 q 298 834 356 888 q 216 652 237 777 q 203 465 203 578 q 256 155 203 257 q 351 60 286 94 q 446 37 396 37 q 538 62 493 37 z "},"r":{"ha":829,"x_min":20,"x_max":847,"o":"m 37 833 q 226 918 119 888 q 439 949 332 949 q 582 927 512 949 q 699 869 652 906 q 783 705 783 802 q 662 511 783 584 q 541 461 608 477 q 669 208 585 338 q 847 0 762 66 q 615 -120 715 -42 q 550 181 589 46 q 458 437 522 279 q 376 419 433 430 q 283 405 311 407 l 283 83 l 385 0 l 37 0 l 139 83 l 139 385 q 20 363 63 378 q 52 448 43 404 q 87 446 74 446 q 139 450 107 446 l 139 778 l 37 833 m 283 839 l 283 460 q 505 520 416 474 q 602 610 572 555 q 626 703 626 654 q 556 845 626 791 q 420 888 498 888 q 283 839 342 888 z "},"s":{"ha":777,"x_min":-14,"x_max":754,"o":"m 717 918 q 657 814 694 888 q 595 675 618 733 q 562 774 581 737 q 483 856 536 824 q 366 888 429 888 q 235 841 287 888 q 189 733 189 799 q 279 600 189 642 q 372 568 323 580 l 494 538 q 686 441 627 506 q 754 265 754 366 q 672 71 754 152 q 427 -23 577 -23 q 262 3 359 -23 q 172 29 235 10 q 95 43 125 43 q -14 0 56 43 q 66 144 23 55 q 121 281 109 236 q 161 163 141 199 q 259 75 195 107 q 425 37 332 37 q 574 80 521 37 q 634 205 634 129 q 585 323 634 271 q 471 390 543 366 q 321 425 430 403 q 128 508 183 451 q 62 682 62 576 q 155 885 62 810 q 353 949 234 949 q 554 913 441 949 q 630 897 607 897 q 717 918 661 897 z "},"t":{"ha":840,"x_min":-18,"x_max":859,"o":"m 859 926 q 753 703 785 805 q 715 794 732 766 q 658 846 696 827 q 574 865 621 865 q 492 861 548 865 l 492 83 l 594 0 l 247 0 l 349 83 l 349 861 q 267 865 293 865 q 183 846 220 865 q 125 794 145 827 q 88 703 109 766 q -18 926 55 806 l 859 926 z "},"u":{"ha":874,"x_min":33,"x_max":888,"o":"m 534 926 l 888 926 q 778 853 814 904 q 745 751 753 817 q 741 658 741 720 l 741 357 q 735 188 741 241 q 713 97 729 135 q 610 2 685 30 q 460 -23 543 -23 q 175 100 241 -23 q 134 359 134 176 l 134 842 l 33 926 l 380 926 l 278 842 l 278 265 q 294 129 278 176 q 366 56 312 79 q 471 37 413 37 q 653 127 612 37 q 682 356 682 191 l 682 658 q 672 787 682 746 q 534 926 648 893 z "},"v":{"ha":861,"x_min":-18,"x_max":1006,"o":"m 1006 1153 q 849 945 912 1063 q 766 762 807 867 q 715 627 741 694 l 508 83 l 610 0 l 252 0 l 353 83 l 83 842 l -18 926 l 330 926 l 227 842 l 473 146 l 663 647 q 732 902 732 828 q 677 1027 732 975 q 1006 1153 888 1065 z "},"w":{"ha":1176,"x_min":-18,"x_max":1271,"o":"m 1271 1153 q 1145 989 1194 1072 q 1071 827 1101 912 q 999 590 1037 729 l 874 136 l 889 83 l 991 0 l 640 0 l 742 83 l 580 665 l 427 125 l 441 83 l 543 0 l 195 0 l 296 83 l 83 842 l -18 926 l 331 926 l 229 842 l 397 241 l 587 926 l 654 926 l 842 246 l 942 607 q 1006 905 1006 838 q 989 975 1006 946 q 933 1027 973 1004 q 1113 1083 1011 1046 q 1271 1153 1220 1122 z "},"x":{"ha":836,"x_min":-18,"x_max":854,"o":"m 387 387 l 167 83 l 269 0 l -18 0 q 52 54 21 28 q 168 188 101 96 l 352 442 l 102 842 l 0 926 l 359 926 l 258 842 l 453 531 l 678 842 l 576 926 l 854 926 q 674 734 760 852 l 488 476 l 734 83 l 836 0 l 474 0 l 576 83 l 387 387 z "},"y":{"ha":906,"x_min":-18,"x_max":1059,"o":"m 1059 1148 q 934 1019 983 1075 q 793 819 896 977 l 526 389 l 526 83 l 627 0 l 280 0 l 382 83 l 382 389 l 209 655 q 83 836 124 789 q -18 926 52 871 l 354 926 l 252 839 l 502 461 l 697 779 q 763 941 763 887 q 702 1027 763 981 q 891 1078 760 1036 q 1059 1148 983 1107 z "},"z":{"ha":821,"x_min":0,"x_max":821,"o":"m 792 926 l 214 65 q 343 60 275 60 q 574 92 512 60 q 692 242 642 127 q 821 0 755 79 l 0 0 l 574 861 q 453 865 517 865 q 256 849 313 865 q 121 704 161 821 q 8 926 77 804 l 792 926 z "},"{":{"ha":481,"x_min":18,"x_max":453,"o":"m 453 1000 l 453 935 q 332 912 366 932 q 283 857 300 895 q 267 786 267 823 q 275 734 267 756 l 295 678 q 306 619 306 648 q 230 496 306 542 q 104 463 193 474 q 220 441 182 456 q 288 391 266 423 q 309 330 309 361 q 279 207 309 304 q 270 142 270 174 q 301 41 270 83 q 404 -7 332 0 q 453 -9 424 -9 l 453 -74 l 361 -74 q 250 -61 301 -74 q 174 -26 198 -47 q 125 50 142 1 q 111 136 111 92 q 142 292 111 189 q 154 362 154 332 q 90 425 154 409 q 18 431 68 429 l 18 495 q 109 517 78 498 q 144 553 132 529 q 154 595 154 575 q 142 654 154 620 l 119 724 q 110 790 110 751 q 142 913 110 858 q 249 989 177 975 q 364 1000 309 1000 l 453 1000 z "},"|":{"ha":694,"x_min":296,"x_max":399,"o":"m 296 926 l 399 926 l 399 -231 l 296 -231 l 296 926 z "},"}":{"ha":481,"x_min":28,"x_max":463,"o":"m 28 -74 l 28 -9 q 149 14 115 -6 q 198 70 181 32 q 214 140 214 104 q 206 192 214 170 l 186 248 q 175 307 175 278 q 251 430 175 385 q 377 463 289 452 q 261 485 299 470 q 193 536 215 503 q 172 596 172 565 q 201 720 172 623 q 211 784 211 752 q 180 886 211 844 q 77 933 149 926 q 28 935 57 935 l 28 1000 l 119 1000 q 231 987 180 1000 q 307 952 283 974 q 355 876 338 925 q 370 791 370 835 q 339 634 370 737 q 327 564 327 594 q 391 502 327 517 q 463 495 412 497 l 463 431 q 372 410 403 428 q 337 373 349 397 q 327 332 327 351 q 338 272 327 307 l 361 203 q 371 136 371 176 q 339 14 371 68 q 232 -62 304 -48 q 117 -74 172 -74 l 28 -74 z "},"~":{"ha":926,"x_min":180,"x_max":746,"o":"m 722 1019 l 746 1003 q 672 908 718 949 q 559 861 618 861 q 496 872 534 861 q 441 890 488 875 q 321 918 359 918 q 243 886 275 918 q 204 845 234 878 l 180 861 q 368 1004 262 1004 q 488 975 404 1004 q 597 949 562 949 q 722 1019 665 949 z "},"Ä":{"ha":958,"x_min":-37,"x_max":977,"o":"m 661 926 l 584 842 l 705 517 q 810 606 771 558 q 833 537 817 579 q 868 468 852 492 q 826 469 844 469 q 734 447 775 469 l 868 83 l 977 0 l 612 0 l 711 83 l 612 346 q 562 296 587 320 q 470 178 497 228 q 306 396 378 326 l 301 382 q 258 252 271 291 q 239 153 239 190 q 274 54 239 95 q 323 0 281 46 l -37 0 q 82 87 37 37 q 248 432 182 204 q 199 459 221 451 q 138 472 177 468 q 175 534 153 494 q 199 586 194 570 q 243 538 216 562 q 279 507 271 515 l 405 842 l 328 926 l 661 926 m 450 778 l 330 465 q 470 289 393 397 q 522 352 477 297 q 585 419 546 382 l 450 778 m 623 1126 q 671 1105 650 1126 q 691 1057 691 1085 q 671 1008 691 1028 q 622 987 651 987 q 573 1008 593 987 q 553 1057 553 1028 q 573 1106 553 1086 q 623 1126 594 1126 m 372 1126 q 420 1105 399 1126 q 440 1057 440 1085 q 420 1008 440 1028 q 371 987 400 987 q 322 1008 342 987 q 302 1057 302 1028 q 323 1106 302 1086 q 372 1126 343 1126 z "},"É":{"ha":838,"x_min":-12,"x_max":838,"o":"m 799 926 q 728 831 748 865 q 671 705 699 783 q 660 729 666 715 q 606 817 630 793 q 505 861 570 852 q 422 865 476 865 q 283 861 354 865 l 283 528 l 479 528 l 572 639 l 572 356 l 479 467 l 283 467 l 283 64 q 378 60 349 60 q 597 104 530 60 q 700 237 645 136 q 747 111 716 163 q 838 0 776 59 l 37 0 l 139 83 l 139 467 q -12 416 51 470 q 139 528 17 527 l 139 842 l 37 926 l 799 926 m 633 1127 l 458 984 l 381 984 l 487 1127 l 633 1127 z "},"¥":{"ha":958,"x_min":-37,"x_max":977,"o":"m 328 926 l 661 926 l 584 842 l 705 517 q 810 606 771 558 q 833 537 817 579 q 868 468 852 492 q 826 469 844 469 q 734 447 775 469 l 868 83 l 977 0 q 869 -99 916 -37 q 833 -177 833 -147 q 842 -197 833 -189 q 863 -205 850 -205 q 969 -134 910 -205 q 953 -249 956 -176 q 842 -279 892 -279 q 776 -248 802 -279 q 752 -184 752 -220 q 836 -35 752 -110 q 881 0 851 -22 l 612 0 l 711 83 l 612 346 q 562 296 587 320 q 470 178 497 228 q 306 396 378 326 l 301 382 q 258 252 271 291 q 239 153 239 190 q 274 54 239 95 q 323 0 281 46 l -37 0 q 82 87 37 37 q 248 432 182 204 q 199 459 221 451 q 138 472 177 468 q 175 534 153 494 q 199 586 194 570 q 243 538 216 562 q 279 507 271 515 l 405 842 l 328 926 m 450 778 l 330 465 q 470 289 393 397 q 522 352 477 297 q 585 419 546 382 l 450 778 z "},"Ö":{"ha":878,"x_min":46,"x_max":831,"o":"m 444 949 q 601 918 529 949 q 722 829 673 886 q 831 463 831 701 q 722 97 831 226 q 439 -23 621 -23 q 155 97 257 -23 q 46 460 46 226 q 155 829 46 700 q 444 949 257 949 m 429 888 q 298 834 357 888 q 216 652 237 777 q 203 464 203 577 q 256 155 203 257 q 351 60 287 94 q 445 37 396 37 q 579 92 521 37 q 674 458 674 180 q 621 771 674 671 q 526 865 590 831 q 429 888 481 888 m 564 1126 q 612 1105 591 1126 q 632 1057 632 1085 q 612 1008 632 1028 q 563 987 592 987 q 514 1008 534 987 q 494 1057 494 1028 q 514 1106 494 1086 q 564 1126 535 1126 m 313 1126 q 361 1105 340 1126 q 381 1057 381 1085 q 361 1008 381 1028 q 312 987 341 987 q 263 1008 283 987 q 243 1057 243 1028 q 263 1106 243 1086 q 313 1126 284 1126 z "},"Ü":{"ha":874,"x_min":33,"x_max":888,"o":"m 534 926 l 888 926 q 778 853 814 904 q 745 751 753 817 q 741 658 741 720 l 741 357 q 735 188 741 241 q 713 97 729 135 q 610 2 685 30 q 460 -23 543 -23 q 175 100 241 -23 q 134 359 134 176 l 134 842 l 33 926 l 380 926 l 278 842 l 278 265 q 294 129 278 176 q 366 56 312 79 q 471 37 413 37 q 653 127 612 37 q 682 356 682 191 l 682 658 q 672 787 682 746 q 534 926 648 893 m 587 1126 q 634 1105 614 1126 q 654 1057 654 1085 q 635 1008 654 1028 q 585 987 614 987 q 536 1008 556 987 q 516 1057 516 1028 q 536 1106 516 1086 q 587 1126 557 1126 m 335 1126 q 382 1105 362 1126 q 403 1057 403 1085 q 383 1008 403 1028 q 334 987 363 987 q 285 1008 304 987 q 264 1057 264 1028 q 285 1106 264 1086 q 335 1126 306 1126 z "},"á":{"ha":958,"x_min":-37,"x_max":977,"o":"m 661 926 l 584 842 l 705 517 q 810 606 771 558 q 833 537 817 579 q 868 468 852 492 q 826 469 844 469 q 734 447 775 469 l 868 83 l 977 0 l 612 0 l 711 83 l 612 346 q 562 296 587 320 q 470 178 497 228 q 306 396 378 326 l 301 382 q 258 252 271 291 q 239 153 239 190 q 274 54 239 95 q 323 0 281 46 l -37 0 q 82 87 37 37 q 248 432 182 204 q 199 459 221 451 q 138 472 177 468 q 175 534 153 494 q 199 586 194 570 q 243 538 216 562 q 279 507 271 515 l 405 842 l 328 926 l 661 926 m 450 778 l 330 465 q 470 289 393 397 q 522 352 477 297 q 585 419 546 382 l 450 778 m 711 1127 l 536 984 l 459 984 l 565 1127 l 711 1127 z "},"¹":{"ha":958,"x_min":-37,"x_max":977,"o":"m 328 926 l 661 926 l 584 842 l 705 517 q 810 606 771 558 q 833 537 817 579 q 868 468 852 492 q 826 469 844 469 q 734 447 775 469 l 868 83 l 977 0 q 869 -99 916 -37 q 833 -177 833 -147 q 842 -197 833 -189 q 863 -205 850 -205 q 969 -134 910 -205 q 953 -249 956 -176 q 842 -279 892 -279 q 776 -248 802 -279 q 752 -184 752 -220 q 836 -35 752 -110 q 881 0 851 -22 l 612 0 l 711 83 l 612 346 q 562 296 587 320 q 470 178 497 228 q 306 396 378 326 l 301 382 q 258 252 271 291 q 239 153 239 190 q 274 54 239 95 q 323 0 281 46 l -37 0 q 82 87 37 37 q 248 432 182 204 q 199 459 221 451 q 138 472 177 468 q 175 534 153 494 q 199 586 194 570 q 243 538 216 562 q 279 507 271 515 l 405 842 l 328 926 m 450 778 l 330 465 q 470 289 393 397 q 522 352 477 297 q 585 419 546 382 l 450 778 z "},"È":{"ha":827,"x_min":46,"x_max":812,"o":"m 812 926 q 666 631 722 769 q 614 791 652 729 q 521 869 582 842 q 440 888 481 888 q 315 841 373 888 q 203 481 203 751 q 264 170 203 288 q 349 76 296 112 q 479 37 407 37 q 642 107 580 37 q 711 296 699 172 q 735 326 713 326 q 763 280 763 326 q 739 153 763 222 q 635 21 708 66 q 455 -24 561 -24 q 291 7 367 -24 q 165 96 216 39 q 73 268 103 167 q 46 454 46 358 q 86 677 46 574 q 201 852 126 781 q 451 949 301 949 q 565 933 511 949 q 630 909 581 928 q 720 889 684 889 q 783 907 753 889 q 812 926 793 912 m 396 984 l 272 1127 l 388 1127 l 462 1043 l 535 1127 l 611 1127 l 489 984 l 396 984 z "},"ä":{"ha":958,"x_min":-37,"x_max":977,"o":"m 661 926 l 584 842 l 705 517 q 810 606 771 558 q 833 537 817 579 q 868 468 852 492 q 826 469 844 469 q 734 447 775 469 l 868 83 l 977 0 l 612 0 l 711 83 l 612 346 q 562 296 587 320 q 470 178 497 228 q 306 396 378 326 l 301 382 q 258 252 271 291 q 239 153 239 190 q 274 54 239 95 q 323 0 281 46 l -37 0 q 82 87 37 37 q 248 432 182 204 q 199 459 221 451 q 138 472 177 468 q 175 534 153 494 q 199 586 194 570 q 243 538 216 562 q 279 507 271 515 l 405 842 l 328 926 l 661 926 m 450 778 l 330 465 q 470 289 393 397 q 522 352 477 297 q 585 419 546 382 l 450 778 m 623 1126 q 671 1105 650 1126 q 691 1057 691 1085 q 671 1008 691 1028 q 622 987 651 987 q 573 1008 593 987 q 553 1057 553 1028 q 573 1106 553 1086 q 623 1126 594 1126 m 372 1126 q 420 1105 399 1126 q 440 1057 440 1085 q 420 1008 440 1028 q 371 987 400 987 q 322 1008 342 987 q 302 1057 302 1028 q 323 1106 302 1086 q 372 1126 343 1126 z "},"è":{"ha":827,"x_min":46,"x_max":812,"o":"m 812 926 q 666 631 722 769 q 614 791 652 729 q 521 869 582 842 q 440 888 481 888 q 315 841 373 888 q 203 481 203 751 q 264 170 203 288 q 349 76 296 112 q 479 37 407 37 q 642 107 580 37 q 711 296 699 172 q 735 326 713 326 q 763 280 763 326 q 739 153 763 222 q 635 21 708 66 q 455 -24 561 -24 q 291 7 367 -24 q 165 96 216 39 q 73 268 103 167 q 46 454 46 358 q 86 677 46 574 q 201 852 126 781 q 451 949 301 949 q 565 933 511 949 q 630 909 581 928 q 720 889 684 889 q 783 907 753 889 q 812 926 793 912 m 396 984 l 272 1127 l 388 1127 l 462 1043 l 535 1127 l 611 1127 l 489 984 l 396 984 z "},"Æ":{"ha":827,"x_min":46,"x_max":812,"o":"m 812 926 q 666 631 722 769 q 614 791 652 729 q 521 869 582 842 q 440 888 481 888 q 315 841 373 888 q 203 481 203 751 q 264 170 203 288 q 349 76 296 112 q 479 37 407 37 q 642 107 580 37 q 711 296 699 172 q 735 326 713 326 q 763 280 763 326 q 739 153 763 222 q 635 21 708 66 q 455 -24 561 -24 q 291 7 367 -24 q 165 96 216 39 q 73 268 103 167 q 46 454 46 358 q 86 677 46 574 q 201 852 126 781 q 451 949 301 949 q 565 933 511 949 q 630 909 581 928 q 720 889 684 889 q 783 907 753 889 q 812 926 793 912 m 673 1127 l 498 984 l 421 984 l 527 1127 l 673 1127 z "},"æ":{"ha":827,"x_min":46,"x_max":812,"o":"m 812 926 q 666 631 722 769 q 614 791 652 729 q 521 869 582 842 q 440 888 481 888 q 315 841 373 888 q 203 481 203 751 q 264 170 203 288 q 349 76 296 112 q 479 37 407 37 q 642 107 580 37 q 711 296 699 172 q 735 326 713 326 q 763 280 763 326 q 739 153 763 222 q 635 21 708 66 q 455 -24 561 -24 q 291 7 367 -24 q 165 96 216 39 q 73 268 103 167 q 46 454 46 358 q 86 677 46 574 q 201 852 126 781 q 451 949 301 949 q 565 933 511 949 q 630 909 581 928 q 720 889 684 889 q 783 907 753 889 q 812 926 793 912 m 673 1127 l 498 984 l 421 984 l 527 1127 l 673 1127 z "},"é":{"ha":838,"x_min":-12,"x_max":838,"o":"m 799 926 q 728 831 748 865 q 671 705 699 783 q 660 729 666 715 q 606 817 630 793 q 505 861 570 852 q 422 865 476 865 q 283 861 354 865 l 283 528 l 479 528 l 572 639 l 572 356 l 479 467 l 283 467 l 283 64 q 378 60 349 60 q 597 104 530 60 q 700 237 645 136 q 747 111 716 163 q 838 0 776 59 l 37 0 l 139 83 l 139 467 q -12 416 51 470 q 139 528 17 527 l 139 842 l 37 926 l 799 926 m 633 1127 l 458 984 l 381 984 l 487 1127 l 633 1127 z "},"":{"ha":821,"x_min":0,"x_max":821,"o":"m 792 926 l 214 65 q 343 60 275 60 q 574 92 512 60 q 692 242 642 127 q 821 0 755 79 l 0 0 l 574 861 q 453 865 517 865 q 256 849 313 865 q 121 704 161 821 q 8 926 77 804 l 792 926 m 625 1127 l 449 984 l 372 984 l 478 1127 l 625 1127 z "},"Ÿ":{"ha":821,"x_min":0,"x_max":821,"o":"m 792 926 l 214 65 q 343 60 275 60 q 574 92 512 60 q 692 242 642 127 q 821 0 755 79 l 0 0 l 574 861 q 453 865 517 865 q 256 849 313 865 q 121 704 161 821 q 8 926 77 804 l 792 926 m 625 1127 l 449 984 l 372 984 l 478 1127 l 625 1127 z "},"Ï":{"ha":852,"x_min":37,"x_max":807,"o":"m 37 926 l 349 926 q 658 846 557 926 q 807 472 807 727 q 648 73 807 187 q 468 5 572 19 q 349 0 427 0 l 37 0 l 139 83 l 139 842 l 37 926 m 283 861 l 283 65 q 370 60 343 60 q 576 163 508 60 q 650 475 650 275 q 592 744 650 641 q 503 834 559 802 q 374 865 446 865 q 283 861 349 865 m 381 984 l 257 1127 l 373 1127 l 447 1043 l 520 1127 l 596 1127 l 474 984 l 381 984 z "},"í":{"ha":421,"x_min":37,"x_max":425,"o":"m 37 926 l 385 926 l 283 842 l 283 83 l 385 0 l 37 0 l 139 83 l 139 842 l 37 926 m 425 1127 l 250 984 l 173 984 l 279 1127 l 425 1127 z "},"ï":{"ha":852,"x_min":37,"x_max":807,"o":"m 37 926 l 349 926 q 658 846 557 926 q 807 472 807 727 q 648 73 807 187 q 468 5 572 19 q 349 0 427 0 l 37 0 l 139 83 l 139 842 l 37 926 m 283 861 l 283 65 q 370 60 343 60 q 576 163 508 60 q 650 475 650 275 q 592 744 650 641 q 503 834 559 802 q 374 865 446 865 q 283 861 349 865 m 381 984 l 257 1127 l 373 1127 l 447 1043 l 520 1127 l 596 1127 l 474 984 l 381 984 z "},"ó":{"ha":878,"x_min":46,"x_max":831,"o":"m 444 949 q 601 918 529 949 q 722 829 673 886 q 831 463 831 701 q 722 97 831 226 q 439 -23 621 -23 q 155 97 257 -23 q 46 460 46 226 q 155 829 46 700 q 444 949 257 949 m 429 888 q 298 834 357 888 q 216 652 237 777 q 203 464 203 577 q 256 155 203 257 q 351 60 287 94 q 445 37 396 37 q 579 92 521 37 q 674 458 674 180 q 621 771 674 671 q 526 865 590 831 q 429 888 481 888 m 652 1127 l 477 984 l 400 984 l 506 1127 l 652 1127 z "},"ô":{"ha":878,"x_min":46,"x_max":831,"o":"m 444 949 q 601 918 529 949 q 722 829 673 886 q 831 463 831 701 q 722 97 831 226 q 439 -23 621 -23 q 155 97 257 -23 q 46 460 46 226 q 155 829 46 700 q 444 949 257 949 m 429 888 q 298 834 357 888 q 216 652 237 777 q 203 464 203 577 q 256 155 203 257 q 351 60 287 94 q 445 37 396 37 q 579 92 521 37 q 674 458 674 180 q 621 771 674 671 q 526 865 590 831 q 429 888 481 888 m 484 1127 l 608 984 l 492 984 l 418 1068 l 345 984 l 269 984 l 391 1127 l 484 1127 z "},"ö":{"ha":878,"x_min":46,"x_max":831,"o":"m 444 949 q 601 918 529 949 q 722 829 673 886 q 831 463 831 701 q 722 97 831 226 q 439 -23 621 -23 q 155 97 257 -23 q 46 460 46 226 q 155 829 46 700 q 444 949 257 949 m 429 888 q 298 834 357 888 q 216 652 237 777 q 203 464 203 577 q 256 155 203 257 q 351 60 287 94 q 445 37 396 37 q 579 92 521 37 q 674 458 674 180 q 621 771 674 671 q 526 865 590 831 q 429 888 481 888 m 564 1126 q 612 1105 591 1126 q 632 1057 632 1085 q 612 1008 632 1028 q 563 987 592 987 q 514 1008 534 987 q 494 1057 494 1028 q 514 1106 494 1086 q 564 1126 535 1126 m 313 1126 q 361 1105 340 1126 q 381 1057 381 1085 q 361 1008 381 1028 q 312 987 341 987 q 263 1008 283 987 q 243 1057 243 1028 q 263 1106 243 1086 q 313 1126 284 1126 z "},"ú":{"ha":874,"x_min":33,"x_max":888,"o":"m 534 926 l 888 926 q 778 853 814 904 q 745 751 753 817 q 741 658 741 720 l 741 357 q 735 188 741 241 q 713 97 729 135 q 610 2 685 30 q 460 -23 543 -23 q 175 100 241 -23 q 134 359 134 176 l 134 842 l 33 926 l 380 926 l 278 842 l 278 265 q 294 129 278 176 q 366 56 312 79 q 471 37 413 37 q 653 127 612 37 q 682 356 682 191 l 682 658 q 672 787 682 746 q 534 926 648 893 m 675 1127 l 499 984 l 422 984 l 528 1127 l 675 1127 z "},"Ì":{"ha":838,"x_min":-12,"x_max":838,"o":"m 799 926 q 728 831 748 865 q 671 705 699 783 q 660 729 666 715 q 606 817 630 793 q 505 861 570 852 q 422 865 476 865 q 283 861 354 865 l 283 528 l 479 528 l 572 639 l 572 356 l 479 467 l 283 467 l 283 64 q 378 60 349 60 q 597 104 530 60 q 700 237 645 136 q 747 111 716 163 q 838 0 776 59 l 37 0 l 139 83 l 139 467 q -12 416 51 470 q 139 528 17 527 l 139 842 l 37 926 l 799 926 m 374 984 l 250 1127 l 366 1127 l 439 1043 l 513 1127 l 589 1127 l 467 984 l 374 984 z "},"ì":{"ha":838,"x_min":-12,"x_max":838,"o":"m 799 926 q 728 831 748 865 q 671 705 699 783 q 660 729 666 715 q 606 817 630 793 q 505 861 570 852 q 422 865 476 865 q 283 861 354 865 l 283 528 l 479 528 l 572 639 l 572 356 l 479 467 l 283 467 l 283 64 q 378 60 349 60 q 597 104 530 60 q 700 237 645 136 q 747 111 716 163 q 838 0 776 59 l 37 0 l 139 83 l 139 467 q -12 416 51 470 q 139 528 17 527 l 139 842 l 37 926 l 799 926 m 374 984 l 250 1127 l 366 1127 l 439 1043 l 513 1127 l 589 1127 l 467 984 l 374 984 z "},"ü":{"ha":874,"x_min":33,"x_max":888,"o":"m 534 926 l 888 926 q 778 853 814 904 q 745 751 753 817 q 741 658 741 720 l 741 357 q 735 188 741 241 q 713 97 729 135 q 610 2 685 30 q 460 -23 543 -23 q 175 100 241 -23 q 134 359 134 176 l 134 842 l 33 926 l 380 926 l 278 842 l 278 265 q 294 129 278 176 q 366 56 312 79 q 471 37 413 37 q 653 127 612 37 q 682 356 682 191 l 682 658 q 672 787 682 746 q 534 926 648 893 m 587 1126 q 634 1105 614 1126 q 654 1057 654 1085 q 635 1008 654 1028 q 585 987 614 987 q 536 1008 556 987 q 516 1057 516 1028 q 536 1106 516 1086 q 587 1126 557 1126 m 335 1126 q 382 1105 362 1126 q 403 1057 403 1085 q 383 1008 403 1028 q 334 987 363 987 q 285 1008 304 987 q 264 1057 264 1028 q 285 1106 264 1086 q 335 1126 306 1126 z "},"†":{"ha":810,"x_min":46,"x_max":764,"o":"m 472 635 l 472 -9 l 574 -93 l 236 -93 l 338 -9 l 338 635 l 130 635 l 46 534 l 46 798 l 130 696 l 338 696 l 338 935 l 236 1019 l 574 1019 l 472 935 l 472 696 l 680 696 l 764 798 l 764 534 l 680 635 l 472 635 z "},"°":{"ha":370,"x_min":37,"x_max":333,"o":"m 188 949 q 290 906 247 949 q 333 800 333 863 q 291 697 333 741 q 184 653 247 653 q 81 696 123 653 q 37 800 37 740 q 81 907 37 864 q 188 949 125 949 m 184 887 q 124 863 149 887 q 98 800 98 837 q 124 739 98 764 q 185 713 149 713 q 248 739 222 713 q 272 800 272 765 q 247 862 272 837 q 184 887 221 887 z "},"Ê":{"ha":838,"x_min":-12,"x_max":838,"o":"m 799 926 q 728 831 748 865 q 671 705 699 783 q 660 729 666 715 q 606 817 630 793 q 505 861 570 852 q 422 865 476 865 q 283 861 354 865 l 283 528 l 479 528 l 572 639 l 572 356 l 479 467 l 283 467 l 283 64 q 378 60 349 60 q 597 104 530 60 q 700 237 645 136 q 747 111 716 163 q 838 0 776 59 q 730 -99 777 -37 q 694 -177 694 -147 q 703 -197 694 -189 q 724 -205 712 -205 q 831 -134 772 -205 q 815 -249 818 -176 q 703 -279 754 -279 q 637 -248 664 -279 q 614 -184 614 -220 q 699 -35 614 -110 q 743 0 713 -22 l 37 0 l 139 83 l 139 467 q -12 416 51 470 q 139 528 17 527 l 139 842 l 37 926 l 799 926 z "},"§":{"ha":743,"x_min":18,"x_max":688,"o":"m 649 1003 q 552 814 599 918 q 547 831 549 823 q 523 887 534 869 q 492 920 511 905 q 366 959 441 959 q 250 926 296 959 q 208 846 208 896 q 237 777 208 807 q 362 718 269 745 q 562 654 511 677 q 688 486 688 598 q 591 330 688 389 q 530 303 567 315 q 649 129 649 244 q 559 -38 649 24 q 361 -93 479 -93 q 214 -73 286 -93 l 155 -57 q 91 -47 119 -47 q 18 -69 60 -47 q 131 133 79 27 q 158 54 137 90 q 229 -7 182 16 q 354 -33 283 -33 q 485 -3 434 -33 q 543 94 543 31 q 461 213 543 170 q 390 242 427 231 q 281 273 361 252 q 116 345 164 307 q 57 470 57 392 q 86 563 57 522 q 166 628 115 605 q 227 644 191 639 q 161 680 186 659 q 98 817 98 733 q 189 975 98 921 q 370 1019 260 1019 q 526 995 443 1019 q 582 984 564 984 q 649 1003 614 984 m 304 618 q 210 591 237 609 q 163 503 163 559 q 209 420 163 453 q 442 339 256 387 q 517 362 490 346 q 574 456 574 397 q 492 560 574 525 q 381 597 456 576 q 304 618 332 611 z "},"•":{"ha":926,"x_min":272,"x_max":657,"o":"m 467 663 q 600 607 544 663 q 657 471 657 551 q 600 334 657 391 q 465 278 545 278 q 329 334 385 278 q 272 470 272 391 q 329 607 272 552 q 467 663 387 663 z "},"¶":{"ha":841,"x_min":18,"x_max":841,"o":"m 344 -93 l 344 521 q 217 531 262 522 q 54 640 104 553 q 18 777 18 700 q 70 937 18 872 q 197 1008 113 991 q 344 1019 251 1019 l 841 1019 q 832 1006 837 1013 q 757 898 778 935 q 735 855 746 878 q 621 956 693 956 q 593 954 610 956 l 593 -93 l 513 -93 l 513 954 l 427 954 l 427 -93 l 344 -93 z "},"ß":{"ha":1554,"x_min":-9,"x_max":1535,"o":"m 721 918 q 661 814 699 888 q 599 675 622 733 q 566 774 585 737 q 487 856 540 824 q 370 888 433 888 q 239 841 291 888 q 193 733 193 799 q 283 600 193 642 q 376 568 327 580 l 498 538 q 690 441 631 506 q 758 265 758 366 q 676 71 758 152 q 431 -23 581 -23 q 267 3 363 -23 q 176 29 239 10 q 99 43 129 43 q -9 0 60 43 q 70 144 27 55 q 125 281 113 236 q 165 163 145 199 q 263 75 199 107 q 429 37 336 37 q 578 80 525 37 q 638 205 638 129 q 589 323 638 271 q 475 390 547 366 q 325 425 434 403 q 132 508 187 451 q 66 682 66 576 q 159 885 66 810 q 357 949 238 949 q 558 913 446 949 q 634 897 611 897 q 721 918 665 897 m 1498 918 q 1439 814 1476 888 q 1376 675 1399 733 q 1343 774 1362 737 q 1264 856 1317 824 q 1147 888 1210 888 q 1016 841 1068 888 q 970 733 970 799 q 1061 600 970 642 q 1153 568 1104 580 l 1275 538 q 1468 441 1409 506 q 1535 265 1535 366 q 1453 71 1535 152 q 1208 -23 1358 -23 q 1044 3 1141 -23 q 954 29 1017 10 q 876 43 906 43 q 768 0 838 43 q 847 144 804 55 q 903 281 890 236 q 943 163 922 199 q 1040 75 977 107 q 1206 37 1113 37 q 1355 80 1302 37 q 1415 205 1415 129 q 1366 323 1415 271 q 1252 390 1324 366 q 1102 425 1211 403 q 909 508 964 451 q 843 682 843 576 q 936 885 843 810 q 1135 949 1015 949 q 1335 913 1223 949 q 1411 897 1388 897 q 1498 918 1442 897 z "},"®":{"ha":1103,"x_min":56,"x_max":1048,"o":"m 562 935 q 892 812 757 935 q 1048 446 1048 671 q 1011 254 1048 343 q 909 105 975 164 q 739 14 842 44 q 566 -12 655 -12 q 224 98 368 -12 q 56 462 56 225 q 208 821 56 697 q 562 935 348 935 m 547 878 q 380 849 456 878 q 258 768 304 821 q 182 614 206 709 q 161 444 161 532 q 247 162 161 261 q 553 43 351 43 q 855 168 755 43 q 924 315 908 235 q 938 455 938 381 q 903 681 938 602 q 755 836 855 785 q 547 878 670 878 m 294 677 q 317 691 304 683 q 426 736 360 719 q 555 754 492 754 q 715 706 652 754 q 770 604 770 665 q 627 455 770 500 q 819 191 705 271 q 653 108 724 162 q 637 196 645 157 q 560 437 614 306 q 469 421 517 428 l 469 248 l 548 185 l 286 185 l 365 248 l 365 408 q 283 388 328 404 q 315 464 308 433 q 343 463 334 463 q 365 464 352 463 l 365 640 l 294 677 m 469 677 l 469 471 q 657 602 657 495 q 618 677 657 649 q 543 701 587 701 q 469 677 502 701 z "},"©":{"ha":1103,"x_min":56,"x_max":1048,"o":"m 562 935 q 892 812 757 935 q 1048 446 1048 671 q 1011 254 1048 343 q 909 105 975 164 q 739 14 842 44 q 566 -12 655 -12 q 224 98 368 -12 q 56 462 56 225 q 208 821 56 697 q 562 935 348 935 m 547 878 q 380 849 456 878 q 258 768 304 821 q 182 614 206 709 q 161 444 161 532 q 247 162 161 261 q 553 43 351 43 q 855 168 755 43 q 924 315 908 235 q 938 455 938 381 q 903 681 938 602 q 755 836 855 785 q 547 878 670 878 m 795 753 q 692 557 725 636 l 680 526 q 675 559 675 553 q 645 648 667 614 q 603 686 630 671 q 548 701 576 701 q 495 686 521 701 q 454 648 469 671 q 416 474 416 588 q 452 298 416 363 q 572 225 491 225 q 701 367 684 225 q 726 393 705 393 q 751 357 751 393 q 736 279 751 321 q 557 172 697 172 q 376 244 444 172 q 302 458 302 324 q 399 696 302 608 q 555 754 463 754 q 665 731 602 754 q 715 720 696 720 q 758 733 736 720 q 781 750 764 739 q 790 756 784 752 l 795 753 z "},"™":{"ha":1244,"x_min":0,"x_max":1225,"o":"m 569 926 q 558 909 564 918 q 494 776 517 845 q 475 824 482 808 q 380 881 450 881 q 334 878 366 881 l 334 427 l 408 370 l 161 370 l 235 427 l 235 878 q 189 881 203 881 q 115 856 142 881 q 83 797 98 840 q 75 776 79 787 q 70 790 72 785 q 0 926 50 848 l 569 926 m 700 792 l 700 427 l 773 370 l 581 370 l 654 427 l 654 869 l 581 926 l 848 926 l 776 870 l 902 522 l 1037 870 l 964 926 l 1225 926 l 1152 869 l 1152 427 l 1225 370 l 979 370 l 1052 427 l 1052 788 l 890 371 l 852 371 l 700 792 z "},"ê":{"ha":838,"x_min":-12,"x_max":838,"o":"m 799 926 q 728 831 748 865 q 671 705 699 783 q 660 729 666 715 q 606 817 630 793 q 505 861 570 852 q 422 865 476 865 q 283 861 354 865 l 283 528 l 479 528 l 572 639 l 572 356 l 479 467 l 283 467 l 283 64 q 378 60 349 60 q 597 104 530 60 q 700 237 645 136 q 747 111 716 163 q 838 0 776 59 q 730 -99 777 -37 q 694 -177 694 -147 q 703 -197 694 -189 q 724 -205 712 -205 q 831 -134 772 -205 q 815 -249 818 -176 q 703 -279 754 -279 q 637 -248 664 -279 q 614 -184 614 -220 q 699 -35 614 -110 q 743 0 713 -22 l 37 0 l 139 83 l 139 467 q -12 416 51 470 q 139 528 17 527 l 139 842 l 37 926 l 799 926 z "},"¨":{"ha":694,"x_min":151,"x_max":541,"o":"m 473 1126 q 520 1105 500 1126 q 541 1057 541 1085 q 521 1008 541 1028 q 471 987 500 987 q 422 1008 442 987 q 402 1057 402 1028 q 422 1106 402 1086 q 473 1126 444 1126 m 222 1126 q 269 1105 249 1126 q 290 1057 290 1085 q 270 1008 290 1028 q 220 987 250 987 q 172 1008 191 987 q 151 1057 151 1028 q 172 1106 151 1086 q 222 1126 193 1126 z "},"Ð":{"ha":852,"x_min":22,"x_max":806,"o":"m 45 463 l 22 530 l 138 530 l 138 842 l 37 926 l 348 926 q 657 846 557 926 q 806 472 806 727 q 647 73 806 187 q 467 5 572 19 q 349 0 426 0 l 37 0 l 138 83 l 138 463 l 45 463 m 282 463 l 282 65 q 369 60 342 60 q 575 163 507 60 q 649 475 649 275 q 591 744 649 641 q 502 833 559 802 q 373 865 445 865 q 282 861 349 865 l 282 530 l 452 530 l 475 463 l 282 463 z "},"ð":{"ha":852,"x_min":22,"x_max":806,"o":"m 45 463 l 22 530 l 138 530 l 138 842 l 37 926 l 348 926 q 657 846 557 926 q 806 472 806 727 q 647 73 806 187 q 467 5 572 19 q 349 0 426 0 l 37 0 l 138 83 l 138 463 l 45 463 m 282 463 l 282 65 q 369 60 342 60 q 575 163 507 60 q 649 475 649 275 q 591 744 649 641 q 502 833 559 802 q 373 865 445 865 q 282 861 349 865 l 282 530 l 452 530 l 475 463 l 282 463 z "},"³":{"ha":774,"x_min":37,"x_max":793,"o":"m 283 505 l 492 663 l 492 587 l 283 429 l 283 64 q 403 60 355 60 q 549 90 498 60 q 654 269 630 138 q 714 125 677 201 q 793 0 761 31 l 37 0 l 139 83 l 139 334 l 37 253 l 37 328 l 139 410 l 139 842 l 37 926 l 385 926 l 283 842 l 283 505 z "},"¼":{"ha":774,"x_min":37,"x_max":793,"o":"m 37 926 l 385 926 l 283 842 l 283 64 q 403 60 355 60 q 549 90 498 60 q 654 269 630 138 q 714 125 677 201 q 793 0 761 31 l 37 0 l 139 83 l 139 842 l 37 926 m 622 949 q 639 870 639 909 q 468 671 639 727 l 460 682 q 498 715 488 703 q 528 804 528 750 q 498 888 528 852 l 509 892 q 622 949 566 913 z "},"¾":{"ha":774,"x_min":37,"x_max":793,"o":"m 37 926 l 385 926 l 283 842 l 283 64 q 403 60 355 60 q 549 90 498 60 q 654 269 630 138 q 714 125 677 201 q 793 0 761 31 l 37 0 l 139 83 l 139 842 l 37 926 m 622 949 q 639 870 639 909 q 468 671 639 727 l 460 682 q 498 715 488 703 q 528 804 528 750 q 498 888 528 852 l 509 892 q 622 949 566 913 z "},"Å":{"ha":774,"x_min":37,"x_max":793,"o":"m 37 926 l 385 926 l 283 842 l 283 64 q 403 60 355 60 q 549 90 498 60 q 654 269 630 138 q 714 125 677 201 q 793 0 761 31 l 37 0 l 139 83 l 139 842 l 37 926 m 425 1127 l 250 984 l 173 984 l 279 1127 l 425 1127 z "},"å":{"ha":774,"x_min":37,"x_max":793,"o":"m 37 926 l 385 926 l 283 842 l 283 64 q 403 60 355 60 q 549 90 498 60 q 654 269 630 138 q 714 125 677 201 q 793 0 761 31 l 37 0 l 139 83 l 139 842 l 37 926 m 425 1127 l 250 984 l 173 984 l 279 1127 l 425 1127 z "},"Ñ":{"ha":847,"x_min":18,"x_max":833,"o":"m 654 176 l 654 686 q 646 801 654 765 q 534 926 625 897 l 833 926 q 743 860 772 906 q 712 686 712 807 l 712 0 l 595 0 l 197 772 l 197 240 q 205 125 197 161 q 317 0 225 29 l 18 0 q 108 66 80 21 q 138 240 138 119 l 138 842 l 37 926 l 411 926 l 309 842 l 654 176 m 637 1127 l 462 984 l 385 984 l 491 1127 l 637 1127 z "},"¬":{"ha":694,"x_min":45,"x_max":648,"o":"m 475 0 l 475 296 l 45 296 l 45 370 l 648 370 l 648 0 l 475 0 z "},"ñ":{"ha":847,"x_min":18,"x_max":833,"o":"m 654 176 l 654 686 q 646 801 654 765 q 534 926 625 897 l 833 926 q 743 860 772 906 q 712 686 712 807 l 712 0 l 595 0 l 197 772 l 197 240 q 205 125 197 161 q 317 0 225 29 l 18 0 q 108 66 80 21 q 138 240 138 119 l 138 842 l 37 926 l 411 926 l 309 842 l 654 176 m 637 1127 l 462 984 l 385 984 l 491 1127 l 637 1127 z "},"Ò":{"ha":847,"x_min":18,"x_max":833,"o":"m 654 176 l 654 686 q 646 801 654 765 q 534 926 625 897 l 833 926 q 743 860 772 906 q 712 686 712 807 l 712 0 l 595 0 l 197 772 l 197 240 q 205 125 197 161 q 317 0 225 29 l 18 0 q 108 66 80 21 q 138 240 138 119 l 138 842 l 37 926 l 411 926 l 309 842 l 654 176 m 378 984 l 254 1127 l 370 1127 l 444 1043 l 517 1127 l 593 1127 l 471 984 l 378 984 z "},"«":{"ha":392,"x_min":28,"x_max":360,"o":"m 178 463 l 298 663 l 360 663 l 281 463 l 360 264 l 292 264 l 178 463 m 28 463 l 148 663 l 210 663 l 132 463 l 210 264 l 142 264 l 28 463 z "},"»":{"ha":393,"x_min":33,"x_max":365,"o":"m 218 459 l 100 263 l 33 263 l 111 471 l 33 663 l 100 663 l 218 459 m 365 459 l 247 263 l 180 263 l 258 471 l 180 663 l 247 663 l 365 459 z "},"…":{"ha":950,"x_min":65,"x_max":886,"o":"m 160 178 q 225 151 198 178 q 252 84 252 123 q 225 18 252 46 q 159 -9 198 -9 q 92 18 119 -9 q 65 84 65 45 q 93 151 65 124 q 160 178 121 178 m 477 178 q 542 151 515 178 q 569 84 569 123 q 543 18 569 46 q 475 -9 515 -9 q 409 18 436 -9 q 382 84 382 45 q 410 151 382 124 q 477 178 437 178 m 793 178 q 859 151 831 178 q 886 84 886 123 q 859 18 886 46 q 792 -9 831 -9 q 726 18 753 -9 q 699 84 699 45 q 726 151 699 124 q 793 178 754 178 z "},"ò":{"ha":847,"x_min":18,"x_max":833,"o":"m 654 176 l 654 686 q 646 801 654 765 q 534 926 625 897 l 833 926 q 743 860 772 906 q 712 686 712 807 l 712 0 l 595 0 l 197 772 l 197 240 q 205 125 197 161 q 317 0 225 29 l 18 0 q 108 66 80 21 q 138 240 138 119 l 138 842 l 37 926 l 411 926 l 309 842 l 654 176 m 378 984 l 254 1127 l 370 1127 l 444 1043 l 517 1127 l 593 1127 l 471 984 l 378 984 z "},"Õ":{"ha":878,"x_min":46,"x_max":831,"o":"m 444 949 q 601 918 529 949 q 722 829 673 886 q 831 463 831 701 q 722 97 831 226 q 439 -23 621 -23 q 155 97 257 -23 q 46 460 46 226 q 155 829 46 700 q 444 949 257 949 m 429 888 q 298 834 357 888 q 216 652 237 777 q 203 464 203 577 q 256 155 203 257 q 351 60 287 94 q 445 37 396 37 q 579 92 521 37 q 674 458 674 180 q 621 771 674 671 q 526 865 590 831 q 429 888 481 888 m 563 1127 l 387 984 l 314 984 l 420 1127 l 563 1127 m 764 1127 l 588 984 l 515 984 l 621 1127 l 764 1127 z "},"õ":{"ha":878,"x_min":46,"x_max":831,"o":"m 444 949 q 601 918 529 949 q 722 829 673 886 q 831 463 831 701 q 722 97 831 226 q 439 -23 621 -23 q 155 97 257 -23 q 46 460 46 226 q 155 829 46 700 q 444 949 257 949 m 429 888 q 298 834 357 888 q 216 652 237 777 q 203 464 203 577 q 256 155 203 257 q 351 60 287 94 q 445 37 396 37 q 579 92 521 37 q 674 458 674 180 q 621 771 674 671 q 526 865 590 831 q 429 888 481 888 m 563 1127 l 387 984 l 314 984 l 420 1127 l 563 1127 m 764 1127 l 588 984 l 515 984 l 621 1127 l 764 1127 z "},"–":{"ha":726,"x_min":28,"x_max":698,"o":"m 665 506 l 698 420 l 60 420 l 28 506 l 665 506 z "},"—":{"ha":957,"x_min":28,"x_max":929,"o":"m 897 506 l 929 420 l 60 420 l 28 506 l 897 506 z "},"“":{"ha":557,"x_min":74,"x_max":533,"o":"m 96 602 q 74 701 74 652 q 96 802 74 753 q 159 882 119 850 q 287 949 211 924 l 293 939 q 248 896 258 909 q 222 845 232 876 q 212 783 212 813 q 250 677 212 722 l 237 671 q 96 602 166 647 m 335 602 q 313 701 313 652 q 336 801 313 753 q 398 882 359 850 q 527 949 450 924 l 533 939 q 487 896 498 909 q 461 845 471 877 q 451 783 451 813 q 490 677 451 722 l 476 671 q 335 602 406 647 z "},"”":{"ha":551,"x_min":24,"x_max":478,"o":"m 456 949 q 478 850 478 900 q 393 668 478 738 q 264 602 340 625 l 258 612 q 304 654 293 640 q 330 705 320 673 q 340 766 340 737 q 302 873 340 828 l 315 878 q 456 949 389 904 m 222 949 q 243 850 243 898 q 158 668 243 738 q 30 602 105 625 l 24 612 q 69 654 58 640 q 95 705 85 673 q 105 766 105 737 q 67 873 105 828 l 81 878 q 222 949 152 903 z "},"‘":{"ha":317,"x_min":74,"x_max":293,"o":"m 96 602 q 74 701 74 652 q 96 802 74 753 q 159 882 119 850 q 287 949 211 924 l 293 939 q 248 896 258 909 q 222 845 232 876 q 212 783 212 813 q 250 677 212 722 l 237 671 q 96 602 166 647 z "},"’":{"ha":317,"x_min":24,"x_max":243,"o":"m 222 949 q 243 850 243 898 q 158 668 243 738 q 30 602 105 625 l 24 612 q 69 654 58 640 q 95 705 85 673 q 105 766 105 737 q 67 873 105 828 l 81 878 q 222 949 152 903 z "},"÷":{"ha":648,"x_min":31,"x_max":618,"o":"m 618 508 l 618 418 l 31 418 l 31 508 l 618 508 m 323 756 q 375 734 353 756 q 397 681 397 712 q 375 629 397 651 q 321 606 353 606 q 269 628 290 606 q 247 681 247 650 q 269 734 247 713 q 323 756 292 756 m 323 319 q 375 298 353 319 q 397 244 397 275 q 375 192 397 214 q 321 170 353 170 q 269 191 290 170 q 247 244 247 214 q 269 298 247 276 q 323 319 292 319 z "},"À":{"ha":829,"x_min":20,"x_max":847,"o":"m 37 833 q 226 918 119 888 q 439 949 332 949 q 582 927 512 949 q 699 869 652 906 q 783 705 783 802 q 662 511 783 584 q 541 461 608 477 q 669 208 585 338 q 847 0 762 66 q 615 -120 715 -42 q 550 181 589 46 q 458 437 522 279 q 376 419 433 430 q 283 405 311 407 l 283 83 l 385 0 l 37 0 l 139 83 l 139 385 q 20 363 63 378 q 52 448 43 404 q 87 446 74 446 q 139 450 107 446 l 139 778 l 37 833 m 283 839 l 283 460 q 505 520 416 474 q 602 610 572 555 q 626 703 626 654 q 556 845 626 791 q 420 888 498 888 q 283 839 342 888 m 629 1127 l 453 984 l 376 984 l 482 1127 l 629 1127 z "},"à":{"ha":829,"x_min":20,"x_max":847,"o":"m 37 833 q 226 918 119 888 q 439 949 332 949 q 582 927 512 949 q 699 869 652 906 q 783 705 783 802 q 662 511 783 584 q 541 461 608 477 q 669 208 585 338 q 847 0 762 66 q 615 -120 715 -42 q 550 181 589 46 q 458 437 522 279 q 376 419 433 430 q 283 405 311 407 l 283 83 l 385 0 l 37 0 l 139 83 l 139 385 q 20 363 63 378 q 52 448 43 404 q 87 446 74 446 q 139 450 107 446 l 139 778 l 37 833 m 283 839 l 283 460 q 505 520 416 474 q 602 610 572 555 q 626 703 626 654 q 556 845 626 791 q 420 888 498 888 q 283 839 342 888 m 629 1127 l 453 984 l 376 984 l 482 1127 l 629 1127 z "},"Ø":{"ha":829,"x_min":20,"x_max":847,"o":"m 37 833 q 226 918 119 888 q 439 949 332 949 q 582 927 512 949 q 699 869 652 906 q 783 705 783 802 q 662 511 783 584 q 541 461 608 477 q 669 208 585 338 q 847 0 762 66 q 615 -120 715 -42 q 550 181 589 46 q 458 437 522 279 q 376 419 433 430 q 283 405 311 407 l 283 83 l 385 0 l 37 0 l 139 83 l 139 385 q 20 363 63 378 q 52 448 43 404 q 87 446 74 446 q 139 450 107 446 l 139 778 l 37 833 m 283 839 l 283 460 q 505 520 416 474 q 602 610 572 555 q 626 703 626 654 q 556 845 626 791 q 420 888 498 888 q 283 839 342 888 m 369 984 l 245 1127 l 361 1127 l 435 1043 l 508 1127 l 584 1127 l 462 984 l 369 984 z "},"‹":{"ha":243,"x_min":28,"x_max":210,"o":"m 28 463 l 148 663 l 210 663 l 132 463 l 210 264 l 142 264 l 28 463 z "},"›":{"ha":245,"x_min":33,"x_max":218,"o":"m 218 459 l 100 263 l 33 263 l 111 471 l 33 663 l 100 663 l 218 459 z "},"ø":{"ha":829,"x_min":20,"x_max":847,"o":"m 37 833 q 226 918 119 888 q 439 949 332 949 q 582 927 512 949 q 699 869 652 906 q 783 705 783 802 q 662 511 783 584 q 541 461 608 477 q 669 208 585 338 q 847 0 762 66 q 615 -120 715 -42 q 550 181 589 46 q 458 437 522 279 q 376 419 433 430 q 283 405 311 407 l 283 83 l 385 0 l 37 0 l 139 83 l 139 385 q 20 363 63 378 q 52 448 43 404 q 87 446 74 446 q 139 450 107 446 l 139 778 l 37 833 m 283 839 l 283 460 q 505 520 416 474 q 602 610 572 555 q 626 703 626 654 q 556 845 626 791 q 420 888 498 888 q 283 839 342 888 m 369 984 l 245 1127 l 361 1127 l 435 1043 l 508 1127 l 584 1127 l 462 984 l 369 984 z "},"Š":{"ha":777,"x_min":-14,"x_max":754,"o":"m 717 918 q 657 814 694 888 q 595 675 618 733 q 562 774 581 737 q 483 856 536 824 q 366 888 429 888 q 235 841 287 888 q 189 733 189 799 q 279 600 189 642 q 372 568 323 580 l 494 538 q 686 441 627 506 q 754 265 754 366 q 672 71 754 152 q 427 -23 577 -23 q 262 3 359 -23 q 172 29 235 10 q 95 43 125 43 q -14 0 56 43 q 66 144 23 55 q 121 281 109 236 q 161 163 141 199 q 259 75 195 107 q 425 37 332 37 q 574 80 521 37 q 634 205 634 129 q 585 323 634 271 q 471 390 543 366 q 321 425 430 403 q 128 508 183 451 q 62 682 62 576 q 155 885 62 810 q 353 949 234 949 q 554 913 441 949 q 630 897 607 897 q 717 918 661 897 m 344 984 l 220 1127 l 336 1127 l 410 1043 l 483 1127 l 559 1127 l 437 984 l 344 984 z "},"‚":{"ha":317,"x_min":24,"x_max":243,"o":"m 222 160 q 243 61 243 110 q 158 -121 243 -51 q 30 -187 105 -163 l 24 -177 q 69 -134 58 -149 q 105 -22 105 -88 q 67 85 105 39 l 81 90 q 222 160 151 115 z "},"„":{"ha":551,"x_min":24,"x_max":478,"o":"m 456 160 q 478 62 478 111 q 456 -40 478 8 q 393 -121 433 -88 q 264 -188 340 -163 l 258 -177 q 304 -134 293 -149 q 330 -83 320 -115 q 340 -22 340 -52 q 302 85 340 39 l 315 90 q 456 160 389 115 m 222 160 q 243 61 243 109 q 220 -40 243 8 q 158 -121 198 -88 q 30 -188 106 -163 l 24 -177 q 69 -134 58 -149 q 95 -83 85 -115 q 105 -22 105 -52 q 67 85 105 39 l 81 90 q 222 160 152 115 z "},"š":{"ha":777,"x_min":-14,"x_max":754,"o":"m 717 918 q 657 814 694 888 q 595 675 618 733 q 562 774 581 737 q 483 856 536 824 q 366 888 429 888 q 235 841 287 888 q 189 733 189 799 q 279 600 189 642 q 372 568 323 580 l 494 538 q 686 441 627 506 q 754 265 754 366 q 672 71 754 152 q 427 -23 577 -23 q 262 3 359 -23 q 172 29 235 10 q 95 43 125 43 q -14 0 56 43 q 66 144 23 55 q 121 281 109 236 q 161 163 141 199 q 259 75 195 107 q 425 37 332 37 q 574 80 521 37 q 634 205 634 129 q 585 323 634 271 q 471 390 543 366 q 321 425 430 403 q 128 508 183 451 q 62 682 62 576 q 155 885 62 810 q 353 949 234 949 q 554 913 441 949 q 630 897 607 897 q 717 918 661 897 m 344 984 l 220 1127 l 336 1127 l 410 1043 l 483 1127 l 559 1127 l 437 984 l 344 984 z "},"Œ":{"ha":777,"x_min":-14,"x_max":754,"o":"m 717 918 q 657 814 694 888 q 595 675 618 733 q 562 774 581 737 q 483 856 536 824 q 366 888 429 888 q 235 841 287 888 q 189 733 189 799 q 279 600 189 642 q 372 568 323 580 l 494 538 q 686 441 627 506 q 754 265 754 366 q 672 71 754 152 q 427 -23 577 -23 q 262 3 359 -23 q 172 29 235 10 q 95 43 125 43 q -14 0 56 43 q 66 144 23 55 q 121 281 109 236 q 161 163 141 199 q 259 75 195 107 q 425 37 332 37 q 574 80 521 37 q 634 205 634 129 q 585 323 634 271 q 471 390 543 366 q 321 425 430 403 q 128 508 183 451 q 62 682 62 576 q 155 885 62 810 q 353 949 234 949 q 554 913 441 949 q 630 897 607 897 q 717 918 661 897 m 603 1127 l 427 984 l 351 984 l 456 1127 l 603 1127 z "},"œ":{"ha":777,"x_min":-14,"x_max":754,"o":"m 717 918 q 657 814 694 888 q 595 675 618 733 q 562 774 581 737 q 483 856 536 824 q 366 888 429 888 q 235 841 287 888 q 189 733 189 799 q 279 600 189 642 q 372 568 323 580 l 494 538 q 686 441 627 506 q 754 265 754 366 q 672 71 754 152 q 427 -23 577 -23 q 262 3 359 -23 q 172 29 235 10 q 95 43 125 43 q -14 0 56 43 q 66 144 23 55 q 121 281 109 236 q 161 163 141 199 q 259 75 195 107 q 425 37 332 37 q 574 80 521 37 q 634 205 634 129 q 585 323 634 271 q 471 390 543 366 q 321 425 430 403 q 128 508 183 451 q 62 682 62 576 q 155 885 62 810 q 353 949 234 949 q 554 913 441 949 q 630 897 607 897 q 717 918 661 897 m 603 1127 l 427 984 l 351 984 l 456 1127 l 603 1127 z "},"Á":{"ha":958,"x_min":-37,"x_max":977,"o":"m 661 926 l 584 842 l 705 517 q 810 606 771 558 q 833 537 817 579 q 868 468 852 492 q 826 469 844 469 q 734 447 775 469 l 868 83 l 977 0 l 612 0 l 711 83 l 612 346 q 562 296 587 320 q 470 178 497 228 q 306 396 378 326 l 301 382 q 258 252 271 291 q 239 153 239 190 q 274 54 239 95 q 323 0 281 46 l -37 0 q 82 87 37 37 q 248 432 182 204 q 199 459 221 451 q 138 472 177 468 q 175 534 153 494 q 199 586 194 570 q 243 538 216 562 q 279 507 271 515 l 405 842 l 328 926 l 661 926 m 450 778 l 330 465 q 470 289 393 397 q 522 352 477 297 q 585 419 546 382 l 450 778 m 711 1127 l 536 984 l 459 984 l 565 1127 l 711 1127 z "},"":{"ha":840,"x_min":-18,"x_max":859,"o":"m 859 926 q 753 703 785 805 q 715 794 732 766 q 658 846 696 827 q 574 865 621 865 q 492 861 548 865 l 492 83 l 594 0 l 247 0 l 349 83 l 349 861 q 267 865 293 865 q 183 846 220 865 q 125 794 145 827 q 88 703 109 766 q -18 926 55 806 l 859 926 m 375 984 l 251 1127 l 367 1127 l 441 1043 l 514 1127 l 590 1127 l 468 984 l 375 984 z "},"":{"ha":840,"x_min":-18,"x_max":859,"o":"m 859 926 q 753 703 785 805 q 715 794 732 766 q 658 846 696 827 q 574 865 621 865 q 492 861 548 865 l 492 83 l 594 0 l 247 0 l 349 83 l 349 861 q 267 865 293 865 q 183 846 220 865 q 125 794 145 827 q 88 703 109 766 q -18 926 55 806 l 859 926 m 375 984 l 251 1127 l 367 1127 l 441 1043 l 514 1127 l 590 1127 l 468 984 l 375 984 z "},"Í":{"ha":421,"x_min":37,"x_max":425,"o":"m 37 926 l 385 926 l 283 842 l 283 83 l 385 0 l 37 0 l 139 83 l 139 842 l 37 926 m 425 1127 l 250 984 l 173 984 l 279 1127 l 425 1127 z "},"":{"ha":821,"x_min":0,"x_max":821,"o":"m 792 926 l 214 65 q 343 60 275 60 q 574 92 512 60 q 692 242 642 127 q 821 0 755 79 l 0 0 l 574 861 q 453 865 517 865 q 256 849 313 865 q 121 704 161 821 q 8 926 77 804 l 792 926 m 365 984 l 241 1127 l 357 1127 l 431 1043 l 504 1127 l 580 1127 l 458 984 l 365 984 z "},"":{"ha":821,"x_min":0,"x_max":821,"o":"m 792 926 l 214 65 q 343 60 275 60 q 574 92 512 60 q 692 242 642 127 q 821 0 755 79 l 0 0 l 574 861 q 453 865 517 865 q 256 849 313 865 q 121 704 161 821 q 8 926 77 804 l 792 926 m 365 984 l 241 1127 l 357 1127 l 431 1043 l 504 1127 l 580 1127 l 458 984 l 365 984 z "},"Ó":{"ha":878,"x_min":46,"x_max":831,"o":"m 444 949 q 601 918 529 949 q 722 829 673 886 q 831 463 831 701 q 722 97 831 226 q 439 -23 621 -23 q 155 97 257 -23 q 46 460 46 226 q 155 829 46 700 q 444 949 257 949 m 429 888 q 298 834 357 888 q 216 652 237 777 q 203 464 203 577 q 256 155 203 257 q 351 60 287 94 q 445 37 396 37 q 579 92 521 37 q 674 458 674 180 q 621 771 674 671 q 526 865 590 831 q 429 888 481 888 m 652 1127 l 477 984 l 400 984 l 506 1127 l 652 1127 z "},"Ô":{"ha":878,"x_min":46,"x_max":831,"o":"m 444 949 q 601 918 529 949 q 722 829 673 886 q 831 463 831 701 q 722 97 831 226 q 439 -23 621 -23 q 155 97 257 -23 q 46 460 46 226 q 155 829 46 700 q 444 949 257 949 m 429 888 q 298 834 357 888 q 216 652 237 777 q 203 464 203 577 q 256 155 203 257 q 351 60 287 94 q 445 37 396 37 q 579 92 521 37 q 674 458 674 180 q 621 771 674 671 q 526 865 590 831 q 429 888 481 888 m 484 1127 l 608 984 l 492 984 l 418 1068 l 345 984 l 269 984 l 391 1127 l 484 1127 z "},"Ù":{"ha":874,"x_min":33,"x_max":888,"o":"m 534 926 l 888 926 q 778 853 814 904 q 745 751 753 817 q 741 658 741 720 l 741 357 q 735 188 741 241 q 713 97 729 135 q 610 2 685 30 q 460 -23 543 -23 q 175 100 241 -23 q 134 359 134 176 l 134 842 l 33 926 l 380 926 l 278 842 l 278 265 q 294 129 278 176 q 366 56 312 79 q 471 37 413 37 q 653 127 612 37 q 682 356 682 191 l 682 658 q 672 787 682 746 q 534 926 648 893 m 463 1159 q 534 1129 504 1159 q 564 1055 564 1099 q 534 983 564 1013 q 460 952 505 952 q 388 982 418 952 q 357 1055 357 1013 q 389 1129 357 1099 q 463 1159 419 1159 m 460 1102 q 429 1088 442 1102 q 414 1055 414 1075 q 428 1022 414 1036 q 461 1008 441 1008 q 494 1023 481 1008 q 508 1055 508 1036 q 494 1088 508 1075 q 460 1102 481 1102 z "},"Ú":{"ha":874,"x_min":33,"x_max":888,"o":"m 534 926 l 888 926 q 778 853 814 904 q 745 751 753 817 q 741 658 741 720 l 741 357 q 735 188 741 241 q 713 97 729 135 q 610 2 685 30 q 460 -23 543 -23 q 175 100 241 -23 q 134 359 134 176 l 134 842 l 33 926 l 380 926 l 278 842 l 278 265 q 294 129 278 176 q 366 56 312 79 q 471 37 413 37 q 653 127 612 37 q 682 356 682 191 l 682 658 q 672 787 682 746 q 534 926 648 893 m 675 1127 l 499 984 l 422 984 l 528 1127 l 675 1127 z "},"ù":{"ha":874,"x_min":33,"x_max":888,"o":"m 534 926 l 888 926 q 778 853 814 904 q 745 751 753 817 q 741 658 741 720 l 741 357 q 735 188 741 241 q 713 97 729 135 q 610 2 685 30 q 460 -23 543 -23 q 175 100 241 -23 q 134 359 134 176 l 134 842 l 33 926 l 380 926 l 278 842 l 278 265 q 294 129 278 176 q 366 56 312 79 q 471 37 413 37 q 653 127 612 37 q 682 356 682 191 l 682 658 q 672 787 682 746 q 534 926 648 893 m 463 1159 q 534 1129 504 1159 q 564 1055 564 1099 q 534 983 564 1013 q 460 952 505 952 q 388 982 418 952 q 357 1055 357 1013 q 389 1129 357 1099 q 463 1159 419 1159 m 460 1102 q 429 1088 442 1102 q 414 1055 414 1075 q 428 1022 414 1036 q 461 1008 441 1008 q 494 1023 481 1008 q 508 1055 508 1036 q 494 1088 508 1075 q 460 1102 481 1102 z "},"Û":{"ha":874,"x_min":33,"x_max":888,"o":"m 534 926 l 888 926 q 778 853 814 904 q 745 751 753 817 q 741 658 741 720 l 741 357 q 735 188 741 241 q 713 97 729 135 q 610 2 685 30 q 460 -23 543 -23 q 175 100 241 -23 q 134 359 134 176 l 134 842 l 33 926 l 380 926 l 278 842 l 278 265 q 294 129 278 176 q 366 56 312 79 q 471 37 413 37 q 653 127 612 37 q 682 356 682 191 l 682 658 q 672 787 682 746 q 534 926 648 893 m 585 1127 l 409 984 l 336 984 l 442 1127 l 585 1127 m 787 1127 l 610 984 l 538 984 l 644 1127 l 787 1127 z "},"û":{"ha":874,"x_min":33,"x_max":888,"o":"m 534 926 l 888 926 q 778 853 814 904 q 745 751 753 817 q 741 658 741 720 l 741 357 q 735 188 741 241 q 713 97 729 135 q 610 2 685 30 q 460 -23 543 -23 q 175 100 241 -23 q 134 359 134 176 l 134 842 l 33 926 l 380 926 l 278 842 l 278 265 q 294 129 278 176 q 366 56 312 79 q 471 37 413 37 q 653 127 612 37 q 682 356 682 191 l 682 658 q 672 787 682 746 q 534 926 648 893 m 585 1127 l 409 984 l 336 984 l 442 1127 l 585 1127 m 787 1127 l 610 984 l 538 984 l 644 1127 l 787 1127 z "},"Ý":{"ha":906,"x_min":-18,"x_max":1059,"o":"m 1059 1148 q 934 1019 983 1075 q 793 819 896 977 l 526 389 l 526 83 l 627 0 l 280 0 l 382 83 l 382 389 l 209 655 q 83 836 124 789 q -18 926 52 871 l 354 926 l 252 839 l 502 461 l 697 779 q 763 941 763 887 q 702 1027 763 981 q 891 1078 760 1036 q 1059 1148 983 1107 m 686 1127 l 510 984 l 433 984 l 539 1127 l 686 1127 z "},"ý":{"ha":906,"x_min":-18,"x_max":1059,"o":"m 1059 1148 q 934 1019 983 1075 q 793 819 896 977 l 526 389 l 526 83 l 627 0 l 280 0 l 382 83 l 382 389 l 209 655 q 83 836 124 789 q -18 926 52 871 l 354 926 l 252 839 l 502 461 l 697 779 q 763 941 763 887 q 702 1027 763 981 q 891 1078 760 1036 q 1059 1148 983 1107 m 686 1127 l 510 984 l 433 984 l 539 1127 l 686 1127 z "},"¯":{"ha":821,"x_min":0,"x_max":821,"o":"m 792 926 l 214 65 q 343 60 275 60 q 574 92 512 60 q 692 242 642 127 q 821 0 755 79 l 0 0 l 574 861 q 453 865 517 865 q 256 849 313 865 q 121 704 161 821 q 8 926 77 804 l 792 926 m 411 1126 q 458 1105 438 1126 q 479 1057 479 1085 q 459 1008 479 1028 q 410 987 439 987 q 361 1008 380 987 q 340 1057 340 1028 q 361 1106 340 1086 q 411 1126 382 1126 z "},"£":{"ha":774,"x_min":37,"x_max":793,"o":"m 283 505 l 492 663 l 492 587 l 283 429 l 283 64 q 403 60 355 60 q 549 90 498 60 q 654 269 630 138 q 714 125 677 201 q 793 0 761 31 l 37 0 l 139 83 l 139 334 l 37 253 l 37 328 l 139 410 l 139 842 l 37 926 l 385 926 l 283 842 l 283 505 z "},"¿":{"ha":821,"x_min":0,"x_max":821,"o":"m 792 926 l 214 65 q 343 60 275 60 q 574 92 512 60 q 692 242 642 127 q 821 0 755 79 l 0 0 l 574 861 q 453 865 517 865 q 256 849 313 865 q 121 704 161 821 q 8 926 77 804 l 792 926 m 411 1126 q 458 1105 438 1126 q 479 1057 479 1085 q 459 1008 479 1028 q 410 987 439 987 q 361 1008 380 987 q 340 1057 340 1028 q 361 1106 340 1086 q 411 1126 382 1126 z "},"¡":{"ha":694,"x_min":178,"x_max":517,"o":"m 302 984 l 178 1127 l 294 1127 l 368 1043 l 441 1127 l 517 1127 l 395 984 l 302 984 z "}," ":{"ha":347,"x_min":0,"x_max":0,"o":""},"¢":{"ha":694,"x_min":142,"x_max":552,"o":"m 142 1140 l 194 1140 q 211 1093 199 1106 q 266 1062 227 1074 q 351 1050 306 1050 q 433 1062 395 1050 q 487 1092 471 1074 q 503 1140 500 1107 l 551 1140 q 552 1128 552 1132 q 495 1017 552 1065 q 351 971 441 971 q 186 1029 242 971 q 142 1127 142 1075 q 142 1140 142 1131 z "},"¤":{"ha":648,"x_min":35,"x_max":613,"o":"m 492 689 l 549 747 l 613 683 l 554 624 q 604 463 604 548 q 552 298 604 373 l 608 243 l 544 179 l 488 235 q 323 182 412 182 q 163 233 235 182 l 104 174 l 40 238 l 98 296 q 43 463 43 373 q 96 627 43 549 l 35 688 l 98 752 l 159 691 q 325 744 235 744 q 492 689 416 744 m 322 688 q 199 624 250 688 q 145 463 145 557 q 197 304 145 371 q 323 238 249 238 q 452 305 399 238 q 503 462 503 372 q 450 623 503 557 q 322 688 398 688 z "},"¦":{"ha":694,"x_min":296,"x_max":399,"o":"m 296 926 l 399 926 l 399 449 l 296 449 l 296 926 m 296 213 l 399 213 l 399 -231 l 296 -231 l 296 213 z "},"ª":{"ha":777,"x_min":-14,"x_max":754,"o":"m 454 -22 l 444 -64 q 456 -63 452 -63 q 498 -85 481 -63 q 518 -152 518 -110 q 477 -260 518 -216 q 385 -298 441 -298 q 269 -227 311 -298 q 309 -202 286 -219 q 346 -174 333 -186 q 352 -211 347 -196 q 389 -241 364 -241 q 429 -205 414 -241 q 441 -147 441 -179 q 401 -100 441 -100 q 364 -121 379 -100 l 351 -110 q 380 -21 370 -66 q 172 29 313 -14 q 95 43 125 43 q -14 0 57 43 q 66 144 23 54 q 121 281 109 236 q 161 163 141 199 q 259 74 195 107 q 425 37 332 37 q 574 79 521 37 q 634 204 634 129 q 585 322 634 270 q 471 389 543 366 q 321 424 430 403 q 128 508 183 451 q 62 682 62 576 q 155 885 62 810 q 353 949 234 949 q 554 913 441 949 q 630 897 607 897 q 717 918 661 897 q 657 814 694 888 q 595 675 618 733 q 562 774 581 737 q 483 856 536 824 q 366 888 429 888 q 235 841 287 888 q 189 733 189 799 q 279 600 189 642 q 372 568 323 579 l 494 538 q 686 441 627 506 q 754 264 754 366 q 701 104 754 176 q 454 -22 618 -9 z "},"­":{"ha":448,"x_min":28,"x_max":420,"o":"m 388 506 l 420 420 l 60 420 l 28 506 l 388 506 z "},"±":{"ha":648,"x_min":31,"x_max":618,"o":"m 31 134 l 618 134 l 618 43 l 31 43 l 31 134 m 279 770 l 369 770 l 369 513 l 618 513 l 618 423 l 369 423 l 369 182 l 279 182 l 279 423 l 31 423 l 31 513 l 279 513 l 279 770 z "},"²":{"ha":694,"x_min":382,"x_max":607,"o":"m 607 0 q 499 -99 546 -37 q 463 -177 463 -147 q 472 -197 463 -189 q 493 -205 481 -205 q 600 -134 541 -205 q 583 -249 587 -176 q 472 -279 523 -279 q 406 -248 433 -279 q 382 -184 382 -220 q 511 0 382 -96 l 607 0 z "},"´":{"ha":694,"x_min":309,"x_max":562,"o":"m 562 1127 l 386 984 l 309 984 l 415 1127 l 562 1127 z "},"µ":{"ha":736,"x_min":96,"x_max":718,"o":"m 213 7 q 218 -53 213 -28 q 254 -185 236 -134 q 96 -203 199 -187 q 105 97 105 -22 l 105 676 l 227 676 l 227 235 q 235 124 227 153 q 342 43 257 43 q 498 231 474 43 q 506 401 506 292 l 506 676 l 627 676 l 627 72 l 718 0 l 506 0 l 506 109 q 427 13 474 44 q 313 -18 380 -18 q 213 7 264 -18 z "},"·":{"ha":317,"x_min":65,"x_max":252,"o":"m 160 492 q 225 465 198 492 q 252 398 252 437 q 225 332 252 360 q 159 304 198 304 q 92 332 119 304 q 65 398 65 359 q 93 465 65 438 q 160 492 121 492 z "},"¸":{"ha":694,"x_min":237,"x_max":486,"o":"m 412 -64 q 423 -63 418 -63 q 467 -85 449 -63 q 486 -152 486 -109 q 446 -260 486 -216 q 353 -298 409 -298 q 237 -227 278 -298 q 277 -202 254 -219 q 313 -174 301 -186 q 320 -211 314 -197 q 357 -241 332 -241 q 397 -205 382 -241 q 409 -146 409 -179 q 370 -100 409 -100 q 332 -121 347 -100 l 319 -110 q 353 0 342 -52 l 427 0 l 412 -64 z "},"º":{"ha":777,"x_min":-14,"x_max":754,"o":"m 454 -22 l 444 -64 q 456 -63 452 -63 q 498 -85 481 -63 q 518 -152 518 -110 q 477 -260 518 -216 q 385 -298 441 -298 q 269 -227 311 -298 q 309 -202 286 -219 q 346 -174 333 -186 q 352 -211 347 -196 q 389 -241 364 -241 q 429 -205 414 -241 q 441 -147 441 -179 q 401 -100 441 -100 q 364 -121 379 -100 l 351 -110 q 380 -21 370 -66 q 172 29 313 -14 q 95 43 125 43 q -14 0 57 43 q 66 144 23 54 q 121 281 109 236 q 161 163 141 199 q 259 74 195 107 q 425 37 332 37 q 574 79 521 37 q 634 204 634 129 q 585 322 634 270 q 471 389 543 366 q 321 424 430 403 q 128 508 183 451 q 62 682 62 576 q 155 885 62 810 q 353 949 234 949 q 554 913 441 949 q 630 897 607 897 q 717 918 661 897 q 657 814 694 888 q 595 675 618 733 q 562 774 581 737 q 483 856 536 824 q 366 888 429 888 q 235 841 287 888 q 189 733 189 799 q 279 600 189 642 q 372 568 323 579 l 494 538 q 686 441 627 506 q 754 264 754 366 q 701 104 754 176 q 454 -22 618 -9 z "},"½":{"ha":694,"x_min":222,"x_max":673,"o":"m 471 1127 l 295 984 l 222 984 l 328 1127 l 471 1127 m 673 1127 l 496 984 l 424 984 l 530 1127 l 673 1127 z "},"Â":{"ha":958,"x_min":-37,"x_max":977,"o":"m 661 926 l 584 842 l 705 517 q 810 606 771 558 q 833 537 817 579 q 868 468 852 492 q 826 469 844 469 q 734 447 775 469 l 868 83 l 977 0 l 612 0 l 711 83 l 612 346 q 562 296 587 320 q 470 178 497 228 q 306 396 378 326 l 301 382 q 258 252 271 291 q 239 153 239 190 q 274 54 239 95 q 323 0 281 46 l -37 0 q 82 87 37 37 q 248 432 182 204 q 199 459 221 451 q 138 472 177 468 q 175 534 153 494 q 199 586 194 570 q 243 538 216 562 q 279 507 271 515 l 405 842 l 328 926 l 661 926 m 450 778 l 330 465 q 470 289 393 397 q 522 352 477 297 q 585 419 546 382 l 450 778 m 543 1127 l 667 984 l 551 984 l 477 1068 l 404 984 l 328 984 l 450 1127 l 543 1127 z "},"Ã":{"ha":958,"x_min":-37,"x_max":977,"o":"m 661 926 l 584 842 l 705 517 q 810 606 771 558 q 833 537 817 579 q 868 468 852 492 q 826 469 844 469 q 734 447 775 469 l 868 83 l 977 0 l 612 0 l 711 83 l 612 346 q 562 296 587 320 q 470 178 497 228 q 306 396 378 326 l 301 382 q 258 252 271 291 q 239 153 239 190 q 274 54 239 95 q 323 0 281 46 l -37 0 q 82 87 37 37 q 248 432 182 204 q 199 459 221 451 q 138 472 177 468 q 175 534 153 494 q 199 586 194 570 q 243 538 216 562 q 279 507 271 515 l 405 842 l 328 926 l 661 926 m 450 778 l 330 465 q 470 289 393 397 q 522 352 477 297 q 585 419 546 382 l 450 778 m 293 1140 l 345 1140 q 361 1093 350 1106 q 417 1062 377 1074 q 501 1050 456 1050 q 584 1062 546 1050 q 637 1092 621 1074 q 654 1140 650 1107 l 702 1140 q 703 1128 703 1132 q 646 1017 703 1065 q 502 971 592 971 q 336 1029 393 971 q 292 1127 292 1075 q 293 1140 292 1131 z "},"Ç":{"ha":827,"x_min":46,"x_max":812,"o":"m 483 -23 l 473 -64 q 485 -63 480 -63 q 528 -85 510 -63 q 547 -152 547 -109 q 507 -260 547 -216 q 414 -298 470 -298 q 298 -227 339 -298 q 338 -202 315 -219 q 375 -174 362 -186 q 381 -211 375 -196 q 418 -241 393 -241 q 458 -205 443 -241 q 470 -147 470 -179 q 431 -100 470 -100 q 393 -121 408 -100 l 380 -110 q 410 -22 395 -73 q 216 50 296 -8 q 85 231 131 112 q 46 454 46 334 q 86 677 46 574 q 201 852 126 781 q 451 949 301 949 q 565 933 511 949 q 630 909 581 928 q 720 889 684 889 q 783 907 753 889 q 812 926 793 912 q 666 631 722 769 q 614 791 652 729 q 521 869 583 842 q 440 888 481 888 q 315 841 373 888 q 203 481 203 751 q 264 170 203 288 q 349 76 296 112 q 479 37 407 37 q 642 107 580 37 q 711 296 699 172 q 735 326 713 326 q 763 280 763 326 q 751 197 763 244 q 723 116 740 150 q 483 -23 661 -8 z "},"Ë":{"ha":838,"x_min":-12,"x_max":838,"o":"m 799 926 q 728 831 748 865 q 671 705 699 783 q 660 729 666 715 q 606 817 630 793 q 505 861 570 852 q 422 865 476 865 q 283 861 354 865 l 283 528 l 479 528 l 572 639 l 572 356 l 479 467 l 283 467 l 283 64 q 378 60 349 60 q 597 104 530 60 q 700 237 645 136 q 747 111 716 163 q 838 0 776 59 l 37 0 l 139 83 l 139 467 q -12 416 51 470 q 139 528 17 527 l 139 842 l 37 926 l 799 926 m 545 1126 q 593 1105 572 1126 q 613 1057 613 1085 q 593 1008 613 1029 q 544 987 573 987 q 495 1008 515 987 q 475 1057 475 1028 q 495 1106 475 1086 q 545 1126 516 1126 m 294 1126 q 341 1105 321 1126 q 361 1057 361 1085 q 342 1008 361 1028 q 292 987 321 987 q 243 1008 263 987 q 223 1057 223 1028 q 244 1106 223 1086 q 294 1126 264 1126 z "},"Î":{"ha":421,"x_min":37,"x_max":385,"o":"m 37 926 l 385 926 l 283 842 l 283 83 l 385 0 l 37 0 l 139 83 l 139 842 l 37 926 m 256 1127 l 380 984 l 264 984 l 191 1068 l 117 984 l 41 984 l 163 1127 l 256 1127 z "},"×":{"ha":648,"x_min":68,"x_max":581,"o":"m 68 655 l 132 719 l 327 524 l 517 714 l 581 650 l 391 460 l 575 275 l 511 212 l 327 396 l 138 207 l 73 271 l 263 460 l 68 655 z "},"Þ":{"ha":840,"x_min":-18,"x_max":859,"o":"m 859 926 q 753 703 785 805 q 715 794 732 766 q 658 846 696 827 q 574 865 621 865 q 492 861 548 865 l 492 83 l 594 0 l 247 0 l 349 83 l 349 861 q 267 865 293 865 q 183 846 220 865 q 125 794 145 827 q 88 703 109 766 q -18 926 55 806 l 859 926 m 463 -46 q 479 -125 479 -87 q 412 -271 479 -215 q 309 -324 370 -305 l 301 -313 q 339 -280 329 -292 q 369 -191 369 -245 q 338 -106 369 -142 l 349 -102 q 463 -46 408 -82 z "},"â":{"ha":958,"x_min":-37,"x_max":977,"o":"m 661 926 l 584 842 l 705 517 q 810 606 771 558 q 833 537 817 579 q 868 468 852 492 q 826 469 844 469 q 734 447 775 469 l 868 83 l 977 0 l 612 0 l 711 83 l 612 346 q 562 296 587 320 q 470 178 497 228 q 306 396 378 326 l 301 382 q 258 252 271 291 q 239 153 239 190 q 274 54 239 95 q 323 0 281 46 l -37 0 q 82 87 37 37 q 248 432 182 204 q 199 459 221 451 q 138 472 177 468 q 175 534 153 494 q 199 586 194 570 q 243 538 216 562 q 279 507 271 515 l 405 842 l 328 926 l 661 926 m 450 778 l 330 465 q 470 289 393 397 q 522 352 477 297 q 585 419 546 382 l 450 778 m 543 1127 l 667 984 l 551 984 l 477 1068 l 404 984 l 328 984 l 450 1127 l 543 1127 z "},"ã":{"ha":958,"x_min":-37,"x_max":977,"o":"m 661 926 l 584 842 l 705 517 q 810 606 771 558 q 833 537 817 579 q 868 468 852 492 q 826 469 844 469 q 734 447 775 469 l 868 83 l 977 0 l 612 0 l 711 83 l 612 346 q 562 296 587 320 q 470 178 497 228 q 306 396 378 326 l 301 382 q 258 252 271 291 q 239 153 239 190 q 274 54 239 95 q 323 0 281 46 l -37 0 q 82 87 37 37 q 248 432 182 204 q 199 459 221 451 q 138 472 177 468 q 175 534 153 494 q 199 586 194 570 q 243 538 216 562 q 279 507 271 515 l 405 842 l 328 926 l 661 926 m 450 778 l 330 465 q 470 289 393 397 q 522 352 477 297 q 585 419 546 382 l 450 778 m 293 1140 l 345 1140 q 361 1093 350 1106 q 417 1062 377 1074 q 501 1050 456 1050 q 584 1062 546 1050 q 637 1092 621 1074 q 654 1140 650 1107 l 702 1140 q 703 1128 703 1132 q 646 1017 703 1065 q 502 971 592 971 q 336 1029 393 971 q 292 1127 292 1075 q 293 1140 292 1131 z "},"ç":{"ha":827,"x_min":46,"x_max":812,"o":"m 483 -23 l 473 -64 q 485 -63 480 -63 q 528 -85 510 -63 q 547 -152 547 -109 q 507 -260 547 -216 q 414 -298 470 -298 q 298 -227 339 -298 q 338 -202 315 -219 q 375 -174 362 -186 q 381 -211 375 -196 q 418 -241 393 -241 q 458 -205 443 -241 q 470 -147 470 -179 q 431 -100 470 -100 q 393 -121 408 -100 l 380 -110 q 410 -22 395 -73 q 216 50 296 -8 q 85 231 131 112 q 46 454 46 334 q 86 677 46 574 q 201 852 126 781 q 451 949 301 949 q 565 933 511 949 q 630 909 581 928 q 720 889 684 889 q 783 907 753 889 q 812 926 793 912 q 666 631 722 769 q 614 791 652 729 q 521 869 583 842 q 440 888 481 888 q 315 841 373 888 q 203 481 203 751 q 264 170 203 288 q 349 76 296 112 q 479 37 407 37 q 642 107 580 37 q 711 296 699 172 q 735 326 713 326 q 763 280 763 326 q 751 197 763 244 q 723 116 740 150 q 483 -23 661 -8 z "},"ë":{"ha":838,"x_min":-12,"x_max":838,"o":"m 799 926 q 728 831 748 865 q 671 705 699 783 q 660 729 666 715 q 606 817 630 793 q 505 861 570 852 q 422 865 476 865 q 283 861 354 865 l 283 528 l 479 528 l 572 639 l 572 356 l 479 467 l 283 467 l 283 64 q 378 60 349 60 q 597 104 530 60 q 700 237 645 136 q 747 111 716 163 q 838 0 776 59 l 37 0 l 139 83 l 139 467 q -12 416 51 470 q 139 528 17 527 l 139 842 l 37 926 l 799 926 m 545 1126 q 593 1105 572 1126 q 613 1057 613 1085 q 593 1008 613 1029 q 544 987 573 987 q 495 1008 515 987 q 475 1057 475 1028 q 495 1106 475 1086 q 545 1126 516 1126 m 294 1126 q 341 1105 321 1126 q 361 1057 361 1085 q 342 1008 361 1028 q 292 987 321 987 q 243 1008 263 987 q 223 1057 223 1028 q 244 1106 223 1086 q 294 1126 264 1126 z "},"î":{"ha":421,"x_min":37,"x_max":385,"o":"m 37 926 l 385 926 l 283 842 l 283 83 l 385 0 l 37 0 l 139 83 l 139 842 l 37 926 m 256 1127 l 380 984 l 264 984 l 191 1068 l 117 984 l 41 984 l 163 1127 l 256 1127 z "},"þ":{"ha":840,"x_min":-18,"x_max":859,"o":"m 859 926 q 753 703 785 805 q 715 794 732 766 q 658 846 696 827 q 574 865 621 865 q 492 861 548 865 l 492 83 l 594 0 l 247 0 l 349 83 l 349 861 q 267 865 293 865 q 183 846 220 865 q 125 794 145 827 q 88 703 109 766 q -18 926 55 806 l 859 926 m 463 -46 q 479 -125 479 -87 q 412 -271 479 -215 q 309 -324 370 -305 l 301 -313 q 339 -280 329 -292 q 369 -191 369 -245 q 338 -106 369 -142 l 349 -102 q 463 -46 408 -82 z "},"ÿ":{"ha":694,"x_min":277,"x_max":415,"o":"m 347 1126 q 395 1105 374 1126 q 415 1057 415 1085 q 395 1008 415 1028 q 346 987 375 987 q 297 1008 317 987 q 277 1057 277 1028 q 297 1106 277 1086 q 347 1126 318 1126 z "},"‡":{"ha":810,"x_min":46,"x_max":764,"o":"m 472 682 l 472 465 l 680 465 l 764 548 l 764 302 l 680 404 l 472 404 l 472 -9 l 574 -93 l 236 -93 l 338 -9 l 338 404 l 130 404 l 46 302 l 46 548 l 130 465 l 338 465 l 338 682 l 130 682 l 46 598 l 46 844 l 130 742 l 338 742 l 338 935 l 231 1019 l 578 1019 l 477 935 l 477 742 l 680 742 l 764 844 l 764 598 l 680 682 l 472 682 z "},"‰":{"ha":1602,"x_min":31,"x_max":1571,"o":"m 258 931 q 420 865 355 931 q 487 681 487 798 q 425 510 487 572 q 264 450 364 450 q 95 517 158 450 q 31 693 31 584 q 90 863 31 801 q 258 931 154 931 m 253 880 q 163 836 188 880 q 136 692 136 785 q 164 551 136 598 q 206 514 178 528 q 266 500 234 500 q 382 690 382 500 q 358 829 382 787 q 253 880 330 880 m 857 918 l 295 0 l 226 0 l 788 918 l 857 918 m 823 469 q 985 403 920 469 q 1052 218 1052 335 q 989 47 1052 109 q 829 -14 929 -14 q 660 54 723 -14 q 596 231 596 121 q 654 400 596 338 q 823 469 719 469 m 818 418 q 728 373 753 418 q 701 229 701 323 q 729 88 701 135 q 771 52 743 66 q 831 37 799 37 q 947 227 947 37 q 923 367 947 324 q 818 418 895 418 m 1341 469 q 1503 403 1438 469 q 1571 218 1571 335 q 1508 47 1571 109 q 1348 -14 1448 -14 q 1178 54 1242 -14 q 1114 231 1114 121 q 1173 400 1114 338 q 1341 469 1237 469 m 1337 418 q 1246 373 1272 418 q 1219 229 1219 323 q 1247 88 1219 135 q 1290 51 1261 65 q 1350 37 1318 37 q 1466 227 1466 37 q 1442 367 1466 324 q 1337 418 1413 418 z "}}}
